<svg fill="#fa8c16" version="1.1" id="Layer_1" xmlns="http://www.w3.org/2000/svg" x="0" y="0" viewBox="0 0 127.9 95.25" xml:space="preserve"><path d="M98.97 22.32l-.06-.08a.98.98 0 00-1.37-.24l-7.6 5.32a.98.98 0 00-.24 1.37l.06.08c.31.45.93.55 1.37.24l7.6-5.32a.99.99 0 00.24-1.37zm20.04 30l-4.12 19.22c-1.02 4.78-3.33 8.43-6.61 10.93-2.27 1.73-4.98 2.88-8.03 3.45l2.7 5.78c.58 1.25.04 2.74-1.21 3.32-1.25.58-2.74.04-3.32-1.21l-3.5-7.48H35.1l-3.5 7.48a2.501 2.501 0 01-3.32 1.21 2.501 2.501 0 01-1.21-3.32l2.55-5.46c-3.9-.34-7.1-1.59-9.68-3.73-3.01-2.5-5.07-6.13-6.3-10.86L8.57 52.32H4.61c-1.26 0-2.41-.52-3.25-1.35v-.01l-.01.01A4.63 4.63 0 010 47.71v-4.19c0-1.27.52-2.42 1.35-3.26.06-.06.13-.13.2-.18a4.54 4.54 0 013.05-1.17h.61c.17-1.82.87-3.54 1.95-5.04 1.1-1.54 2.62-2.85 4.35-3.75 1.74-.91 3.71-1.42 5.7-1.36 1.75.06 3.49.54 5.1 1.56.7-1.02 1.57-1.93 2.57-2.68 1.96-1.47 4.41-2.35 7.06-2.35 2.2 0 4.26.6 6.01 1.64 1.37.81 2.55 1.9 3.47 3.18 2.79.22 5.31 1.41 7.2 3.23 1.55 1.5 2.67 3.42 3.16 5.56h67.25V14.1c-1.46-7.17-5.6-9.12-11.13-8.33 2.49 4.34 2.17 8.75-1.36 13.25.45.73.41 1.53-.08 2.38l-1.1 1.27c-.44.45-.99.49-1.7-.08L86.76 5.52c-.46-.55-.37-1.03.17-1.45 1.2-1.47 1.35-1.72 3.48-1.36 4.74-3.08 9.25-3.63 13.5-1.19 10.67-4.38 19.75 1.12 20.98 12.32V39.2a4.612 4.612 0 013 4.32v4.19a4.606 4.606 0 01-4.6 4.61h-4.28zM89.4 14.1l-.06-.08a.98.98 0 00-1.37-.24l-7.6 5.32a.98.98 0 00-.24 1.37l.06.08c.31.45.93.55 1.37.24l7.6-5.32a.98.98 0 00.24-1.37zm-4.37-4.4l-.06-.08a.98.98 0 00-1.37-.24L76 14.7a.98.98 0 00-.24 1.37l.06.08c.31.45.93.55 1.37.24l7.6-5.32a.99.99 0 00.24-1.37zm8.73 8.65l-.06-.08a.98.98 0 00-1.37-.24l-7.6 5.32a.98.98 0 00-.24 1.37l.06.08c.31.45.93.55 1.37.24l7.61-5.32c.43-.31.54-.92.23-1.37zM10.29 38.91h36.25a5.94 5.94 0 00-1.37-1.95 6.694 6.694 0 00-4.67-1.86c-.28 0 .02-.01-.17-.01l-.17.01a2.5 2.5 0 01-2.33-1.34 6.384 6.384 0 00-2.41-2.51c-1-.59-2.19-.94-3.46-.94-1.54 0-2.95.5-4.06 1.33-1.11.84-1.94 2.01-2.3 3.35-.12.51-.41.99-.85 1.35-1.07.87-2.65.71-3.52-.36-1.23-1.51-2.71-2.17-4.16-2.22-1.1-.04-2.22.26-3.23.79a7.666 7.666 0 00-2.59 2.24c-.47.66-.81 1.38-.96 2.12zM8.5 43.93c-.4.1-.8.09-1.18 0h-2.3v3.36h117.86v-3.36H8.5zm5.24 8.39l4.74 18.07c.96 3.68 2.48 6.45 4.66 8.25 2.13 1.77 5 2.67 8.73 2.67h63.75c3.86 0 7.15-.95 9.61-2.82 2.34-1.78 3.99-4.45 4.75-7.99l3.9-18.18H13.74z"/></svg>