<svg fill="#fa8c16" version="1.1" id="Layer_1" xmlns="http://www.w3.org/2000/svg" x="0" y="0" viewBox="0 0 99.28 122.88" xml:space="preserve"><path d="M49.8 120.05c2.9.68 5.99 1.06 9.2 1.27 2.68.17 5.24.36 7.92.61 12.4 1.14 23.6 1.38 28.64-2.9 1.32-.91 2.12-2.09 2.51-3.47.51-1.79 1.6-3.91 1.06-6.22-1.78-11.2-6.17-14.01-13.17-22.73-2.31-2.88-4.53-5.93-6.39-9.65-3.05-6.1-2.46-9.57-4.28-15.49-.21-.69-.44-1.37-.69-2.04-1.78-4.85-2.17-6.37-7.17-8.19-3.16-1.15-7.24-1.22-9.58-3.51-2-1.95-2.58-4.61-2.61-7.55 2.99-2.36 5.48-7.18 6.8-10.46.01-.02.03-.05.04-.07.83-1.91 1.01-3.22.59-4.08a1.71 1.71 0 00-.3-.44c.43-.85.69-1.55.75-1.96.26-.74.38-1.46.39-2.18.04-3.09-1.83-8.1-3.94-10.38-.65-.7-1.36-1.29-2.13-1.79-5.19-3.37-14.53-3.03-19.24.88-3.12 2.6-4.13 5.59-4.27 9.33-.09 2.2-.13 3.91.9 6.07-.14.17-.25.35-.34.55-.18.4-.27.86-.25 1.37.03 1.1.54 2.45 1.52 3.94 1.25 3.09 3.46 6.97 6.06 9.12-.06 3.75-1.01 6.83-3.59 8.69-3.44 2.47-7.6 1.28-11.77 4.51-3.38 2.62-4.03 6.85-5.21 10.71l-4.36 14.35C13.95 86.79 2.79 96.88.4 108.96c-.86 1.41-.06 2.86-.05 4.34.04 3.51 1.95 5.18 4.84 6.72 7.58 4.03 18.97 3.12 30.94 1.47 1.75.16 3.59.1 5.5-.13 1.59-.2 3.22-.51 4.88-.93 1.51-.39 1.77-.74 3.29-.38zM29.16 72l1.28-4.44c.02 6.11 1.59 8.96 2.66 12.59.4 1.35.73 2.8.89 4.56.47 5.24-.32 9.47-1.91 14.44-1.08 3.37-2.15 6.31-1.7 7.47-7.16-2.38-13.95-2.96-20.48-2.32 10.6-11 15.17-18.09 19.26-32.3zm39.18 0l-1.28-4.44c-.02 6.11-1.59 8.96-2.66 12.59-.4 1.35-.73 2.8-.89 4.56-.47 5.24.32 9.47 1.91 14.44 1.08 3.37 1.82 6.9 1.37 8.06 7.16-2.38 16.78-3.29 23.31-2.65-9.67-11-17.18-18.35-21.76-32.56zM44.19 1.27c3.1-1.98 6.62-1.54 9.53.56a7.3 7.3 0 011.94 2.05c.44.7 1.21 2.13-.23 2.35-.57.09-1.56-.64-2.33-.88-.99-.3-2-.49-3-.59-1.88-.19-3.72-.04-5.31.37-.86.22-1.7.5-2.5.85-.37.16-1.13.64-1.34.03-.49-1.42 2.13-4.02 3.24-4.74z" fill-rule="evenodd" clip-rule="evenodd"/></svg>