<svg id="Layer_1" data-name="Layer 1" fill="#fff" xmlns="http://www.w3.org/2000/svg" viewBox="0 0 119.45 122.88"><path d="M0 58.68v-5.12l39.82 34.82-39.3 30.8a6.14 6.14 0 01-.52-2.47v-58zm82-6a24 24 0 01-1 6.19 15.32 15.32 0 01-2.48 4.85 10.89 10.89 0 01-3.83 3.18 11.09 11.09 0 01-4.86 1.1 8.69 8.69 0 01-2.13-.25 7.6 7.6 0 01-1.91-.75 6.7 6.7 0 01-1.58-1.21 6.8 6.8 0 01-.69-.82 8.54 8.54 0 01-6.69 2.92 8 8 0 01-2.52-.39 7.53 7.53 0 01-2.19-1.19 7.89 7.89 0 01-1.71-1.88 10.11 10.11 0 01-1.19-2.52 15.7 15.7 0 01-.55-6.27 23.36 23.36 0 011.46-5.95 16.59 16.59 0 012.83-4.71 12.06 12.06 0 014-3.09 11.11 11.11 0 014.79-1 14.3 14.3 0 013.67.45 11.15 11.15 0 013.17 1.39l1.63 1.09a.65.65 0 01.28.59l-1.39 14.95a3.29 3.29 0 00.29 2.22 1.75 1.75 0 001.54.61 2.63 2.63 0 001.61-.56A5.63 5.63 0 0074 59.74a12 12 0 001.09-3 20.78 20.78 0 00.47-3.83 24.13 24.13 0 00-.65-7.4 13.59 13.59 0 00-2.76-5.39 11.76 11.76 0 00-4.67-3.32A17.51 17.51 0 0061 35.68a16.06 16.06 0 00-4.45.6 14.57 14.57 0 00-3.91 1.79A15.31 15.31 0 0049.32 41a18.56 18.56 0 00-2.54 3.93 24 24 0 00-1.69 4.76 29.77 29.77 0 00-.74 5.42 25.78 25.78 0 00.65 7.7 14 14 0 002.77 5.57 11.75 11.75 0 004.76 3.38 18.42 18.42 0 006.77 1.15 19.82 19.82 0 002.16-.12c.74-.08 1.51-.21 2.28-.37s1.48-.33 2.12-.52a15.05 15.05 0 001.7-.61.64.64 0 01.84.34.55.55 0 010 .17l1.01 4.2a.67.67 0 01-.28.68 10.53 10.53 0 01-2 1 17.2 17.2 0 01-2.47.76 23.7 23.7 0 01-2.73.49 23.18 23.18 0 01-2.75.16 24.74 24.74 0 01-12.17-2.77 16.89 16.89 0 01-4.39-3.45 18.16 18.16 0 01-3.09-4.79 24 24 0 01-1.73-5.95 35.46 35.46 0 01-.39-7.13 32.6 32.6 0 011-6.86 28 28 0 012.36-6.12 23.13 23.13 0 013.6-5.02 21.6 21.6 0 014.74-3.82 22.27 22.27 0 015.65-2.37 24.52 24.52 0 016.31-.81 22.8 22.8 0 0111.5 2.77 17.53 17.53 0 014.28 3.4 18.32 18.32 0 013 4.59 22.32 22.32 0 011.76 5.6 28.62 28.62 0 01.39 6.35zm-25.7 3a15.3 15.3 0 000 2.79 5.85 5.85 0 00.48 1.9 2.42 2.42 0 00.83 1 2.13 2.13 0 001.19.32 2.1 2.1 0 00.89-.2 3.08 3.08 0 00.87-.67 5.64 5.64 0 00.83-1.17 10.13 10.13 0 00.69-1.58l1-11h-.17a5.62 5.62 0 00-.74 0 5 5 0 00-2.25.49A4.51 4.51 0 0058.27 49a9.45 9.45 0 00-1.2 2.7 23.81 23.81 0 00-.73 4zM.15 43.47C1 40.14 5.72 38 8.34 36.14V21.85a6 6 0 016-6h22.47L58.26.57A3.24 3.24 0 0162 .59l21.08 15.26h22a6 6 0 016 6V36.1c2.82 2 8.34 4.72 8.34 8.49v.15l-14.31 12.09v-35H14.34v34L.15 43.47zm119.3 11.31v61.93a6.12 6.12 0 01-1.42 3.93L78.34 89.43l41.11-34.65zm-11 68.1H8.26l37.45-29.35 11.15 9.75a3.83 3.83 0 005.15-.09l10.32-8.69 36.09 28.38z"/></svg>