<svg id="Layer_1" data-name="Layer 1" fill="#fff" xmlns="http://www.w3.org/2000/svg" viewBox="0 0 109.22 122.88"><path d="M41.83 97.57v-.38a17 17 0 014.31-11.57L32.39 71.88a5.76 5.76 0 00-8.13 0 5.76 5.76 0 000 8.12l17.57 17.57zm-8.13 11.5a4.08 4.08 0 11-2.27 7.84 47.87 47.87 0 01-19.92-11A44.75 44.75 0 01.23 88.11a4.09 4.09 0 017.71-2.72 36.71 36.71 0 009.2 14.61 39.73 39.73 0 0016.56 9.12zm30.18-86.69A4.08 4.08 0 1167.36 15a44.74 44.74 0 0110.19 6.55 41.61 41.61 0 017.63 8.63 4.09 4.09 0 11-6.82 4.51 33.56 33.56 0 00-6.12-6.93 36.66 36.66 0 00-8.36-5.37zM68.05 8A4.08 4.08 0 1170.32.16a48 48 0 0119.93 11A44.84 44.84 0 01101.52 29a4.09 4.09 0 01-7.71 2.72 36.71 36.71 0 00-9.2-14.56A39.73 39.73 0 0068.05 8zm24.46 63.35A29.16 29.16 0 0084 76.83a14.41 14.41 0 00-4.16 6.78 11 11 0 00.56 7A16.51 16.51 0 0084 95.8l-2 1.85C71.69 86.59 77.13 76 90.11 69.4l-3.85-3.66a12.25 12.25 0 00-1-.9 1.85 1.85 0 01-.56-.32 11.5 11.5 0 00-7.35-1.74 11.34 11.34 0 00-7 3.28l-.75.75h-.06L48.89 87.56a1.83 1.83 0 01-.54.38l-.37.38a11.37 11.37 0 00-3.28 6.89 12 12 0 00.21 3.73 11.77 11.77 0 003 5.12l12.42 12.42a21.7 21.7 0 0015.24 6.4 21.06 21.06 0 0015.1-6.21l9.42-9.42a21.85 21.85 0 007.12-16.71v-.11l-.14-29.23a1.5 1.5 0 010-.3l2.13.13-2.12-.13c.28-4.55-1.33-7.49-3.47-8.8a5.16 5.16 0 00-2.47-.78 4.64 4.64 0 00-2.4.52c-1.89 1-3.32 3.33-3.32 7.16 0 .88 0 3.21-.06 5.42a27 27 0 01-.53 5.27 2.13 2.13 0 01-.58 1.08 2.1 2.1 0 01-1.76.62zM47.89 83.61L56 75.48l-22-22a5.78 5.78 0 00-4-1.64 5.72 5.72 0 00-4.07 1.67 5.79 5.79 0 000 8.14l22 22zm10.3-10.3l8.13-8.13-29-29a5.79 5.79 0 00-8.14 0 5.79 5.79 0 000 8.14l29 29zm10.74-9.49a17.55 17.55 0 0111.63-4.34h.28l-25.7-25.71a5.77 5.77 0 00-8.13 0 5.77 5.77 0 000 8.13l21.91 21.93z" fill-rule="evenodd"/></svg>