<svg width="343" height="76" fill="none" xmlns="http://www.w3.org/2000/svg"><path d="M0 10.176C0 6.848 1.184 4.32 3.552 2.592 5.984.864 9.504 0 14.112 0v28.128h26.976V10.176c0-3.328 1.184-5.856 3.552-7.584C47.072.864 50.592 0 55.2 0v58.752c0 3.328-1.216 5.856-3.648 7.584-2.368 1.728-5.856 2.592-10.464 2.592V40.32H14.112v18.432c0 3.328-1.216 5.856-3.648 7.584C8.096 68.064 4.608 68.928 0 68.928V10.176zm82.097 58.752c-4.224 0-8.064-.768-11.52-2.304-3.456-1.536-6.176-3.648-8.16-6.336-1.984-2.752-2.976-5.856-2.976-9.312V38.208c0-3.52.96-6.72 2.88-9.6 1.92-2.944 4.608-5.248 8.064-6.912 3.456-1.664 7.36-2.496 11.712-2.496 4.352 0 8.256.832 11.712 2.496 3.456 1.664 6.144 3.968 8.064 6.912 1.92 2.88 2.88 6.08 2.88 9.6v12.768c0 3.456-.992 6.56-2.976 9.312-1.984 2.688-4.704 4.8-8.16 6.336-3.456 1.536-7.296 2.304-11.52 2.304zm0-11.328c3.008 0 5.344-.672 7.008-2.016 1.664-1.344 2.496-3.2 2.496-5.568V38.88c0-2.496-.864-4.512-2.592-6.048-1.664-1.536-3.968-2.304-6.912-2.304s-5.28.768-7.008 2.304c-1.664 1.536-2.496 3.552-2.496 6.048v11.136c0 2.368.832 4.224 2.496 5.568 1.664 1.344 4 2.016 7.008 2.016zm26.938-28.416c0-3.2 1.024-5.664 3.072-7.392 2.048-1.728 5.152-2.592 9.312-2.592v5.664a16.457 16.457 0 00-2.4 3.264l.672.384c2.048-3.072 4.16-5.376 6.336-6.912 2.24-1.6 4.896-2.4 7.968-2.4 5.44 0 9.216 2.72 11.328 8.16 1.6-2.56 3.648-4.544 6.144-5.952 2.496-1.472 5.312-2.208 8.448-2.208 4.352 0 7.808 1.6 10.368 4.8 2.624 3.2 3.936 7.264 3.936 12.192v25.056c0 2.752-1.056 4.736-3.168 5.952-2.112 1.152-5.376 1.728-9.792 1.728V37.344c0-2.176-.48-3.904-1.44-5.184-.96-1.28-2.464-1.92-4.512-1.92-2.048 0-3.776.736-5.184 2.208-1.408 1.408-2.112 3.808-2.112 7.2v21.6c0 2.752-1.056 4.736-3.168 5.952-2.048 1.152-5.248 1.728-9.6 1.728V37.344c0-2.176-.48-3.904-1.44-5.184-.96-1.28-2.432-1.92-4.416-1.92-4.928 0-7.392 3.296-7.392 9.888v21.12c0 2.752-1.056 4.736-3.168 5.952-2.112 1.152-5.376 1.728-9.792 1.728V29.184zM203.9 68.928c-3.968 0-7.648-.8-11.04-2.4-3.328-1.6-5.984-3.776-7.968-6.528s-2.976-5.824-2.976-9.216V38.496c0-3.584.992-6.848 2.976-9.792 2.048-3.008 4.768-5.344 8.16-7.008 3.392-1.664 7.04-2.496 10.944-2.496 3.84 0 7.36.8 10.56 2.4 3.264 1.536 5.824 3.744 7.68 6.624 1.856 2.816 2.784 6.016 2.784 9.6v5.184c0 1.536-.576 2.848-1.728 3.936-1.152 1.024-2.624 1.536-4.416 1.536h-24.192v1.344c0 2.56.768 4.672 2.304 6.336 1.6 1.6 3.936 2.4 7.008 2.4 3.008 0 5.216-.64 6.624-1.92 1.408-1.344 2.112-3.008 2.112-4.992 1.28-.128 2.24-.192 2.88-.192 2.624 0 4.64.544 6.048 1.632 1.408 1.088 2.112 2.688 2.112 4.8 0 1.728-.864 3.456-2.592 5.184-1.728 1.728-4.128 3.136-7.2 4.224-3.008 1.088-6.368 1.632-10.08 1.632zm9.216-29.76v-1.344c0-2.56-.864-4.576-2.592-6.048-1.664-1.536-3.872-2.304-6.624-2.304s-4.992.768-6.72 2.304c-1.664 1.472-2.496 3.488-2.496 6.048v1.344h18.432zM236.47 5.964c0-1.633.667-2.933 2-3.9 1.333-1 3.117-1.5 5.35-1.5l10 25.5-1.25 3.4.55.25 10.75-29.1c2.233 0 4.017.5 5.35 1.5 1.333.967 2 2.267 2 3.9v30.5c-4.767 0-7.15-1.75-7.15-5.25v-14.3l1.8-5-.6-.2-8.5 22.8a3.116 3.116 0 01-1.15 1.4 3.024 3.024 0 01-1.75.55 3.102 3.102 0 01-1.8-.55 3.075 3.075 0 01-1.15-1.45l-8.5-22.85-.6.25 1.8 5v14.35c0 3.5-2.383 5.25-7.15 5.25V5.964zm47.534 30.55c-1.633 0-3.166-.317-4.6-.95-1.4-.667-2.533-1.617-3.4-2.85-.866-1.267-1.3-2.783-1.3-4.55s.467-3.283 1.4-4.55c.934-1.3 2.167-2.283 3.7-2.95 1.567-.667 3.267-1 5.1-1 1.534 0 2.884.233 4.05.7a11.34 11.34 0 013.35 2.05l.25-.3c-.7-.633-1.25-1.083-1.65-1.35v-.65c0-1.267-.466-2.267-1.4-3-.9-.767-2.183-1.15-3.85-1.15-1.466 0-2.766.267-3.9.8a6.718 6.718 0 00-2.75 2.35c-.8-.2-1.483-.567-2.05-1.1-.533-.567-.8-1.183-.8-1.85 0-1.033.45-1.967 1.35-2.8.9-.867 2.117-1.533 3.65-2 1.567-.5 3.284-.75 5.15-.75 3.634 0 6.434.833 8.4 2.5 1.967 1.667 2.95 3.933 2.95 6.8v12.15c0 1.567-.516 2.7-1.55 3.4-1 .7-2.6 1.05-4.8 1.05v-1.95c.5-.467.9-.883 1.2-1.25l-.25-.25c-1.1 1.133-2.25 2-3.45 2.6-1.2.567-2.8.85-4.8.85zm1.9-4.9c1.6 0 2.85-.3 3.75-.9.9-.6 1.35-1.467 1.35-2.6 0-1.1-.466-1.967-1.4-2.6-.9-.633-2.133-.95-3.7-.95-1.4 0-2.516.317-3.35.95-.8.633-1.2 1.5-1.2 2.6 0 1.133.4 2 1.2 2.6.834.6 1.95.9 3.35.9zm26.302 4.9c-2.834 0-4.917-.817-6.25-2.45-1.334-1.633-2-3.733-2-6.3v-11.65h-5.3c0-1.7.316-2.967.95-3.8.633-.833 1.466-1.25 2.5-1.25h1.95v-3.95c0-1.433.55-2.45 1.65-3.05 1.1-.633 2.766-.95 5-.95v7.95h6.65c0 1.8-.334 3.1-1 3.9-.667.767-1.767 1.15-3.3 1.15h-2.25v11.4c0 1.1.216 1.9.65 2.4.433.467 1.183.7 2.25.7 1.166 0 2.366-.333 3.6-1 .366.333.65.75.85 1.25.233.5.35 1 .35 1.5 0 .667-.234 1.317-.7 1.95-.467.633-1.184 1.167-2.15 1.6-.934.4-2.084.6-3.45.6zm19.232 0c-2.067 0-3.984-.417-5.75-1.25-1.734-.833-3.117-1.967-4.15-3.4a8.01 8.01 0 01-1.55-4.8v-6.4c0-1.867.516-3.567 1.55-5.1 1.066-1.567 2.483-2.783 4.25-3.65 1.766-.867 3.666-1.3 5.7-1.3 2 0 3.833.417 5.5 1.25 1.7.8 3.033 1.95 4 3.45.966 1.467 1.45 3.133 1.45 5v2.7c0 .8-.3 1.483-.9 2.05-.6.533-1.367.8-2.3.8h-12.6v.7c0 1.333.4 2.433 1.2 3.3.833.833 2.05 1.25 3.65 1.25 1.566 0 2.716-.333 3.45-1 .733-.7 1.1-1.567 1.1-2.6.666-.067 1.166-.1 1.5-.1 1.366 0 2.416.283 3.15.85.733.567 1.1 1.4 1.1 2.5 0 .9-.45 1.8-1.35 2.7-.9.9-2.15 1.633-3.75 2.2-1.567.567-3.317.85-5.25.85zm4.8-15.5v-.7c0-1.333-.45-2.383-1.35-3.15-.867-.8-2.017-1.2-3.45-1.2-1.434 0-2.6.4-3.5 1.2-.867.767-1.3 1.817-1.3 3.15v.7h9.6z" fill="#002ED0"/><path d="M233.336 68.496c-1.088 0-2.016-.352-2.784-1.056-.768-.736-1.152-1.664-1.152-2.784 0-1.12.384-2.048 1.152-2.784.768-.736 1.696-1.104 2.784-1.104 1.088 0 2.016.368 2.784 1.104.8.736 1.2 1.664 1.2 2.784 0 1.12-.4 2.048-1.2 2.784-.768.704-1.696 1.056-2.784 1.056z" fill="#FFD53F"/><path d="M248.808 68.37c-1.406 0-2.709-.283-3.91-.85-1.179-.567-2.12-1.337-2.822-2.312a5.448 5.448 0 01-1.054-3.264v-4.352c0-1.27.351-2.425 1.054-3.468.725-1.065 1.688-1.893 2.89-2.482a8.68 8.68 0 013.876-.884c1.36 0 2.606.283 3.74.85 1.156.544 2.062 1.326 2.72 2.346.657.997.986 2.13.986 3.4v1.836c0 .544-.204 1.009-.612 1.394-.408.363-.93.544-1.564.544h-8.568v.476c0 .907.272 1.655.816 2.244.566.567 1.394.85 2.482.85 1.065 0 1.847-.227 2.346-.68a2.348 2.348 0 00.748-1.768c.453-.045.793-.068 1.02-.068.929 0 1.643.193 2.142.578.498.385.748.952.748 1.7 0 .612-.306 1.224-.918 1.836-.612.612-1.462 1.11-2.55 1.496-1.066.385-2.256.578-3.57.578zm3.264-10.54v-.476c0-.907-.306-1.62-.918-2.142-.59-.544-1.372-.816-2.346-.816-.975 0-1.768.272-2.38.816-.59.521-.884 1.235-.884 2.142v.476h6.528zm7.726 10.54a4.83 4.83 0 01-1.462-.238c-.498-.136-.895-.363-1.19-.68l5.916-8.126-5.406-7.888c.182-.204.533-.363 1.054-.476a5.599 5.599 0 011.394-.204c1.315 0 2.199.363 2.652 1.088l2.788 4.488-.714.986.272.204 3.672-5.678c.476-.725 1.417-1.088 2.822-1.088.408 0 .839.068 1.292.204.476.113.805.272.986.476l-5.44 7.888 5.95 8.126a2.454 2.454 0 01-1.122.68 4.089 4.089 0 01-1.36.238 4.34 4.34 0 01-1.496-.272c-.476-.181-.816-.408-1.02-.68l-3.638-5.406-3.604 5.406c-.204.295-.521.521-.952.68-.43.181-.895.272-1.394.272zm16.788-14.518c0-.861.363-1.587 1.088-2.176.725-.612 1.791-.918 3.196-.918v1.836c-.272.34-.487.646-.646.918l.17.136c.703-.975 1.485-1.7 2.346-2.176.884-.476 1.983-.714 3.298-.714 1.224 0 2.312.26 3.264.782a5.404 5.404 0 012.244 2.21c.544.93.816 1.995.816 3.196v5.236c0 1.224-.306 2.312-.918 3.264-.589.93-1.417 1.655-2.482 2.176-1.043.499-2.221.748-3.536.748-.771 0-1.609-.159-2.516-.476-.884-.317-1.621-.76-2.21-1.326l-.136.17c.113.181.363.408.748.68v4.692c0 2.04-1.575 3.06-4.726 3.06V53.852zm7.888 10.506c1.043 0 1.836-.215 2.38-.646.567-.43.85-1.043.85-1.836v-4.59c0-.816-.283-1.44-.85-1.87-.544-.43-1.337-.646-2.38-.646-.952 0-1.734.227-2.346.68-.589.43-.884.986-.884 1.666v4.896c0 .657.295 1.213.884 1.666.612.453 1.394.68 2.346.68zm18.554 4.012c-1.405 0-2.708-.283-3.91-.85-1.178-.567-2.119-1.337-2.822-2.312a5.454 5.454 0 01-1.054-3.264v-4.352c0-1.27.352-2.425 1.054-3.468.726-1.065 1.689-1.893 2.89-2.482a8.687 8.687 0 013.876-.884c1.36 0 2.607.283 3.74.85 1.156.544 2.063 1.326 2.72 2.346.658.997.986 2.13.986 3.4v1.836c0 .544-.204 1.009-.612 1.394-.408.363-.929.544-1.564.544h-8.568v.476c0 .907.272 1.655.816 2.244.567.567 1.394.85 2.482.85 1.066 0 1.848-.227 2.346-.68.499-.476.748-1.065.748-1.768.454-.045.794-.068 1.02-.068.93 0 1.644.193 2.142.578.499.385.748.952.748 1.7 0 .612-.306 1.224-.918 1.836-.612.612-1.462 1.11-2.55 1.496-1.065.385-2.255.578-3.57.578zm3.264-10.54v-.476c0-.907-.306-1.62-.918-2.142-.589-.544-1.371-.816-2.346-.816-.974 0-1.768.272-2.38.816-.589.521-.884 1.235-.884 2.142v.476h6.528zm16.496-3.06c-1.36 0-2.459.351-3.298 1.054-.838.703-1.258 1.587-1.258 2.652v7.174c0 .975-.385 1.677-1.156 2.108-.748.408-1.915.612-3.502.612V54.294c0-1.133.374-2.006 1.122-2.618.748-.612 1.859-.918 3.332-.918v2.006c-.34.363-.623.748-.85 1.156l.238.136c1.428-2.199 3.208-3.298 5.338-3.298 1.02 0 1.791.272 2.312.816.522.544.782 1.235.782 2.074 0 .635-.17 1.19-.51 1.666-.634-.363-1.484-.544-2.55-.544zm13.465 13.6c-1.927 0-3.343-.555-4.25-1.666-.907-1.11-1.36-2.539-1.36-4.284v-7.922h-3.604c0-1.156.215-2.017.646-2.584.431-.567.997-.85 1.7-.85h1.326v-2.686c0-.975.374-1.666 1.122-2.074.748-.43 1.881-.646 3.4-.646v5.406h4.522c0 1.224-.227 2.108-.68 2.652-.453.521-1.201.782-2.244.782h-1.53v7.752c0 .748.147 1.292.442 1.632.295.317.805.476 1.53.476.793 0 1.609-.227 2.448-.68.249.227.442.51.578.85.159.34.238.68.238 1.02 0 .453-.159.895-.476 1.326-.317.43-.805.793-1.462 1.088-.635.272-1.417.408-2.346.408z" fill="#002ED0"/></svg>