<svg fill="#fa8c16" version="1.1" id="Layer_1" xmlns="http://www.w3.org/2000/svg" x="0" y="0" width="122.88" height="122.88" xml:space="preserve"><path d="M34.388 67.984a7.002 7.002 0 01-1.335-2.078 7.018 7.018 0 011.293-7.482l.34-.35a7.053 7.053 0 018.499-.951c.39.233.762.51 1.109.827l.034.031a322.279 322.279 0 007.343 6.79l1.841 1.651 22.532-23.635a6.998 6.998 0 013.52-1.958 7 7 0 011.356-.165h.026a7.46 7.46 0 011.341.103c.437.074.876.193 1.333.369a6.84 6.84 0 012.263 1.426l.162.147c.316.313.601.653.85 1.014.256.369.475.766.652 1.178.183.414.325.852.424 1.299.1.439.154.895.165 1.36v.23a7.224 7.224 0 01-.114 1.204 6.983 6.983 0 01-.963 2.481 6.957 6.957 0 01-.832 1.07l-27.219 28.56a6.844 6.844 0 01-2.205 1.579 7.122 7.122 0 01-2.638.627l-.125.003a7.147 7.147 0 01-1.241-.078l-.102-.02a7.266 7.266 0 01-1.205-.31 7.113 7.113 0 01-1.226-.575l-.063-.04a7.194 7.194 0 01-1.032-.754l-.063-.06c-1.58-1.466-3.297-2.958-5.033-4.466-3.007-2.613-7.178-6.382-9.678-9.02l-.009-.007zM61.44 0c16.96 0 32.328 6.883 43.453 17.987 11.104 11.125 17.986 26.493 17.986 43.453 0 16.961-6.883 32.329-17.986 43.454C93.769 115.998 78.4 122.88 61.44 122.88c-16.961 0-32.329-6.882-43.454-17.986C6.882 93.769 0 78.4 0 61.439 0 44.48 6.882 29.112 17.986 17.987 29.112 6.883 44.479 0 61.44 0zm35.459 25.981C87.826 16.907 75.29 11.296 61.44 11.296c-13.851 0-26.387 5.611-35.46 14.685-9.073 9.073-14.684 21.609-14.684 35.458 0 13.851 5.611 26.387 14.684 35.46s21.609 14.685 35.46 14.685c13.85 0 26.386-5.611 35.459-14.685s14.684-21.609 14.684-35.46c0-13.849-5.61-26.385-14.684-35.458z"/></svg>