<svg version="1.1" id="Layer_1" fill="#fc8f13" xmlns="http://www.w3.org/2000/svg" x="0" y="0" viewBox="0 0 110.01 122.88" xml:space="preserve"><path d="M1.87 14.69h22.66l-.03-.39V4.13C24.5 1.86 26.86 0 29.76 0c2.89 0 5.26 1.87 5.26 4.13V14.3l-.03.39h38.59l-.03-.39V4.13C73.55 1.86 75.91 0 78.8 0s5.26 1.87 5.26 4.13V14.3l-.03.39h24.11c1.03 0 1.87.84 1.87 1.87v19.46c0 1.03-.84 1.87-1.87 1.87H1.87A1.889 1.889 0 010 36.01V16.55c0-1.03.84-1.86 1.87-1.86zm29.48 68.84a5.458 5.458 0 01-.55-7.69 5.45 5.45 0 017.69-.56l12.45 10.8 20.31-20.04a5.46 5.46 0 017.71.02 5.46 5.46 0 01-.02 7.71l-23.92 23.6c-2 1.99-5.24 2.14-7.41.26l-16.26-14.1zM.47 42.19h109.08c.26 0 .46.21.46.47v79.76c0 .25-.21.46-.46.46H.47c-.25 0-.46-.21-.46-.46V42.66c-.01-.26.2-.47.46-.47zm8.37 8.39h93.84c.52 0 .94.45.94.94v62.85c0 .49-.45.94-.94.94H8.39c-.49 0-.94-.42-.94-.94v-62.4c0-1.03.84-1.86 1.86-1.86l-.47.47zm69.5-20.71c2.89 0 5.26-1.87 5.26-4.13V15.11l-.03-.41H73.12l-.03.41v10.16c0 2.27 2.36 4.13 5.25 4.13v.47zm-49.05 0c2.89 0 5.26-1.87 5.26-4.13V15.11l-.03-.41H24.06l-.03.41v10.16c0 2.27 2.36 4.13 5.25 4.13v.47h.01z" fill-rule="evenodd" clip-rule="evenodd"/></svg>