<svg version="1.1" id="Layer_1" xmlns="http://www.w3.org/2000/svg" x="0" y="0" viewBox="0 0 122.88 120.1" xml:space="preserve"><path d="M69.43 4.04c0-2.22 2.19-4.04 4.92-4.04s4.92 1.8 4.92 4.04V21.7c0 2.22-2.19 4.04-4.92 4.04s-4.92-1.8-4.92-4.04V4.04zM13.41 57.17c-.28 0-.53-1.23-.53-2.73s.22-2.72.53-2.72h13.44c.28 0 .53 1.23.53 2.72 0 1.5-.22 2.73-.53 2.73H13.41zm21.41 0c-.28 0-.53-1.23-.53-2.73s.22-2.72.53-2.72h13.44c.28 0 .53 1.23.53 2.72 0 1.5-.22 2.73-.53 2.73H34.82zm21.42 0c-.28 0-.53-1.23-.53-2.73s.22-2.72.53-2.72h13.44c.28 0 .53 1.22.53 2.71-1.35.84-2.64 1.75-3.88 2.74H56.24zM13.44 72.8c-.28 0-.53-1.23-.53-2.73s.22-2.73.53-2.73h13.44c.28 0 .53 1.23.53 2.73 0 1.51-.22 2.73-.53 2.73H13.44zm21.41 0c-.28 0-.53-1.23-.53-2.73s.22-2.73.53-2.73h13.44c.28 0 .53 1.23.53 2.73 0 1.51-.22 2.73-.53 2.73H34.85zM13.46 88.43c-.28 0-.53-1.23-.53-2.73 0-1.51.22-2.73.53-2.73H26.9c.28 0 .53 1.23.53 2.73s-.22 2.73-.53 2.73H13.46zm21.42 0c-.28 0-.53-1.23-.53-2.73 0-1.51.22-2.73.53-2.73h13.44c.28 0 .53 1.23.53 2.73s-.22 2.73-.53 2.73H34.88zM25.21 4.04C25.21 1.81 27.4 0 30.13 0s4.92 1.8 4.92 4.04V21.7c0 2.22-2.2 4.04-4.92 4.04-2.73 0-4.92-1.8-4.92-4.04V4.04zM5.42 38.61h93.77V18.28c0-.7-.28-1.31-.73-1.75-.45-.45-1.09-.73-1.75-.73h-8.99c-1.51 0-2.73-1.23-2.73-2.73s1.22-2.73 2.73-2.73h8.99c2.2 0 4.18.89 5.62 2.33a7.888 7.888 0 012.33 5.62v32.28c-1.79-.62-3.64-1.12-5.53-1.49v-5.04h.06H5.42V96.7c0 .7.28 1.31.73 1.75.45.45 1.09.73 1.75.73h44.56c.51 1.89 1.15 3.74 1.91 5.51H7.95a7.93 7.93 0 01-5.62-2.33A7.888 7.888 0 010 96.75V18.3c0-2.19.89-4.18 2.33-5.62a7.888 7.888 0 015.62-2.33h9.6c1.5 0 2.73 1.23 2.73 2.73s-1.23 2.73-2.73 2.73h-9.6c-.7 0-1.31.28-1.75.73-.45.45-.73 1.09-.73 1.75v20.33l-.05-.01zM42.93 15.8a2.74 2.74 0 01-2.73-2.73c0-1.5 1.23-2.73 2.73-2.73h18.3c1.51 0 2.73 1.23 2.73 2.73 0 1.51-1.23 2.73-2.73 2.73h-18.3z" fill="#393939"/><path d="M91.09 56.53c8.78 0 16.73 3.56 22.48 9.31 5.74 5.76 9.3 13.71 9.3 22.48s-3.56 16.73-9.3 22.48c-5.76 5.75-13.71 9.31-22.48 9.31s-16.73-3.56-22.48-9.31c-5.75-5.76-9.31-13.71-9.31-22.48s3.56-16.73 9.31-22.48 13.7-9.31 22.48-9.31zm-14 35.17c-.15-.16-.28-.33-.39-.51-.12-.18-.21-.37-.3-.57a3.59 3.59 0 01-.23-2.04c.12-.67.42-1.31.9-1.83l.18-.18a3.653 3.653 0 014.4-.49c.2.12.39.26.57.43l.02.02c1 .96 2.69 2.53 3.8 3.51l.95.85 11.66-12.23c.16-.17.34-.32.54-.45.2-.14.4-.25.61-.34.21-.09.44-.17.67-.22.23-.05.47-.08.7-.08h.01c.23 0 .46.01.69.05a3.755 3.755 0 011.32.5c.19.12.37.26.55.43l.08.08a3.752 3.752 0 01.78 1.14c.1.21.17.44.22.67.05.23.08.46.09.7v.12c0 .21-.02.42-.06.62a3.683 3.683 0 01-.49 1.29c-.12.2-.27.38-.43.55l-14.1 14.77c-.17.18-.34.33-.53.46a3.7 3.7 0 01-1.28.58c-.23.06-.46.09-.7.1h-.06c-.22 0-.44-.01-.64-.04l-.05-.01c-.21-.04-.42-.09-.62-.16-.22-.08-.43-.18-.63-.3l-.03-.02c-.19-.12-.37-.25-.54-.39l-.03-.03c-.82-.76-1.71-1.53-2.6-2.31-1.57-1.35-3.73-3.3-5.03-4.67z" fill-rule="evenodd" clip-rule="evenodd" fill="#6bbe66"/></svg>