<svg version="1.1" id="Layer_1" xmlns="http://www.w3.org/2000/svg" x="0" y="0" viewBox="0 0 122.88 122.88" xml:space="preserve"><path d="M81.61 4.73c0-2.61 2.58-4.73 5.77-4.73s5.77 2.12 5.77 4.73v20.72c0 2.61-2.58 4.73-5.77 4.73s-5.77-2.12-5.77-4.73V4.73zm-52 0c0-2.61 2.58-4.73 5.77-4.73s5.77 2.12 5.77 4.73v20.72c0 2.61-2.58 4.73-5.77 4.73s-5.77-2.12-5.77-4.73V4.73zm11.38 79.83a3.19 3.19 0 014.42-4.6l9.9 9.57 22.02-23.58A3.192 3.192 0 0182 70.3L57.77 96.26l-.04.04a3.19 3.19 0 01-4.51.09L40.99 84.56zM6.4 45.32h110.08V21.47c0-.8-.33-1.53-.86-2.07-.53-.53-1.26-.86-2.07-.86H103c-1.77 0-3.2-1.43-3.2-3.2 0-1.77 1.43-3.2 3.2-3.2h10.55c2.57 0 4.9 1.05 6.59 2.74a9.297 9.297 0 012.74 6.59v92.09c0 2.57-1.05 4.9-2.74 6.59a9.297 9.297 0 01-6.59 2.74H9.33c-2.57 0-4.9-1.05-6.59-2.74a9.339 9.339 0 01-2.74-6.6V21.47c0-2.57 1.05-4.9 2.74-6.59a9.297 9.297 0 016.59-2.74H20.6c1.77 0 3.2 1.43 3.2 3.2 0 1.77-1.43 3.2-3.2 3.2H9.33c-.8 0-1.53.33-2.07.86-.53.53-.86 1.26-.86 2.07v23.85zm110.08 6.41H6.4v61.82c0 .8.33 1.53.86 2.07.53.53 1.26.86 2.07.86h104.22c.8 0 1.53-.33 2.07-.86.53-.53.86-1.26.86-2.07V51.73zM50.43 18.54c-1.77 0-3.2-1.43-3.2-3.2 0-1.77 1.43-3.2 3.2-3.2h21.49c1.77 0 3.2 1.43 3.2 3.2 0 1.77-1.43 3.2-3.2 3.2H50.43z" fill="#050505"/></svg>