<svg id="Layer_1" data-name="Layer 1" xmlns="http://www.w3.org/2000/svg" viewBox="0 0 122.88 67.72"><path d="M3.24 16.78l2.3 28.47c.31 2.94 1 4.83 1.84 5.87a2.82 2.82 0 002.85.85h11.55a3.84 3.84 0 003.31-1.32l.05-.06A8.31 8.31 0 0026.32 46V14.57a1.21 1.21 0 01-.07-.43.49.49 0 010-.12 2.93 2.93 0 00-1.25-2.1 7.16 7.16 0 00-3.88-.78H7a4.3 4.3 0 00-3.19 1.17c-.67.8-.91 2.18-.58 4.33v.14zm89.86-1.21a10.86 10.86 0 01.09-1.43L88 10.65c-.75-.5-1.57-1.08-2.4-1.66-3-2.08-6-4.22-9.33-5.09a26.12 26.12 0 00-5.94-.82 20.38 20.38 0 00-5.46.6 14 14 0 00-3 1.14 10.75 10.75 0 00-2.31 1.64L56 10.63a1.59 1.59 0 01-.44.52l-9.67 11.51a4.21 4.21 0 00.84 1.85 4.09 4.09 0 001.78 1.26 5.77 5.77 0 002.52.31 8.21 8.21 0 004.42-1.83L58.14 22c.68-.56 1.25-1.08 1.81-1.59a24.11 24.11 0 013.78-3c3-1.8 6-1.86 9 3.12L87.93 48h5.17V15.57zm1.23-4.39a5.67 5.67 0 01.8-.9 8.24 8.24 0 015.67-1.78H114c2.77 0 5 .49 6.58 1.69 1.73 1.34 2.55 3.37 2.2 6.29l-2.92 30.21a10.68 10.68 0 01-2.2 6.27 6.74 6.74 0 01-5.7 2.22h-11.87a6.06 6.06 0 01-4.26-1.31 8 8 0 01-2.15-2.81h-4.11a7.09 7.09 0 01.08 4.52 7.43 7.43 0 01-2.47 3.5 8.47 8.47 0 01-3.87 1.71 7.68 7.68 0 01-4.17-.46 10.83 10.83 0 01-4.91 3.13 8.53 8.53 0 01-5.23-.24 10.44 10.44 0 01-5.56 3.46 10.22 10.22 0 01-6.62-1 9.76 9.76 0 01-2.29 1.35 8.61 8.61 0 01-3.55.65 9.66 9.66 0 01-6.55-2.39 19.2 19.2 0 01-3.68-5.09l-6.56-11.4h-5.08a9 9 0 01-1.51 3.63l-.07.1A6.74 6.74 0 0121.7 55H10.61a5.66 5.66 0 01-5.56-1.89c-1.3-1.51-2.2-4-2.58-7.57v-.13L.17 17.05c-.46-3.06 0-5.23 1.28-6.71a7.13 7.13 0 015.42-2.28H21.1a10 10 0 015.57 1.27 5.73 5.73 0 012.43 3.25h9.55a27.48 27.48 0 017.13-3.67A19.39 19.39 0 0154 8.27l3.27-3.89.12-.13a13.71 13.71 0 013-2.16 17.83 17.83 0 013.67-1.4A24.23 24.23 0 0170.35 0 29.26 29.26 0 0177 .92c3.81 1 7.1 3.31 10.3 5.55.77.54 1.53 1.07 2.35 1.62l4.65 3.09zM15.77 38.76a2.66 2.66 0 11-2.65 2.65 2.66 2.66 0 012.65-2.65zm70.59 12.16a1.57 1.57 0 01-.88-1L70.06 22.09c-1.71-2.86-3.25-2.94-4.75-2.05A22.52 22.52 0 0062 22.71c-.68.62-1.36 1.24-1.92 1.7l-2.73 2.25a11.38 11.38 0 01-6.09 2.5 9 9 0 01-3.86-.5 7.28 7.28 0 01-3.11-2.22 7.44 7.44 0 01-1.59-4.11 1.58 1.58 0 01.45-1.22l8.33-9.91a15 15 0 00-4.81.67 25.56 25.56 0 00-6.63 3.48 1.5 1.5 0 01-1 .33h-9.63v30h5.67a1.55 1.55 0 011.38.84l7 12.15a17.79 17.79 0 003 4.34 6.77 6.77 0 004.58 1.6 5.63 5.63 0 002.3-.42 5.8 5.8 0 001.31-.75L50.14 55a1.54 1.54 0 012.71-1.45l4.94 9.23a6.67 6.67 0 008.87-1.54l-7.11-11.18a1.54 1.54 0 01.45-2.13 1.56 1.56 0 012.13.47l7.49 11.77a5.81 5.81 0 003.78.32 7.65 7.65 0 003.44-2.24l-6.77-12.78A1.55 1.55 0 0172.8 44l7 13.22a4.44 4.44 0 003 .5 5.27 5.27 0 002.45-1.08 4.27 4.27 0 001.45-2 4.12 4.12 0 00-.23-3 1.48 1.48 0 01-.12-.71zm20.32-12.16a2.66 2.66 0 11-2.68 2.65 2.66 2.66 0 012.65-2.65z" fill-rule="evenodd"/></svg>