<svg width="75" height="100" fill="none" xmlns="http://www.w3.org/2000/svg"><path d="M29.546 40.606V39.04a1.465 1.465 0 00-2.93 0v1.566a1.465 1.465 0 002.93 0zm17.323-3.031c-.81 0-1.465.656-1.465 1.465v1.566a1.465 1.465 0 002.93 0V39.04c0-.809-.656-1.465-1.465-1.465zm1.565-4.697h-3.13a1.465 1.465 0 100 2.93h3.13a1.465 1.465 0 000-2.93z" fill="#fff"/><path d="M68.322 77.96a26.78 26.78 0 00.365-4.475c0-6.938-2.769-10.845-5.212-14.292-1.737-2.45-3.29-4.643-3.912-7.728h2.942a3.03 3.03 0 002.651-1.566h2.046a4.601 4.601 0 004.596-4.596v-6.262a4.603 4.603 0 00-3.131-4.356V20.253C68.667 9.085 59.58 0 48.414 0h-21.92C15.329 0 6.243 9.085 6.243 20.253v14.432a4.603 4.603 0 00-3.131 4.355v6.263a4.601 4.601 0 004.596 4.596h1.667V50c0 6.85 5.573 12.424 12.424 12.424h.342a4.603 4.603 0 004.355 3.132h.121v1.933c0 .978-.292 1.912-.834 2.703l-.517-.345a3.039 3.039 0 00-3.824.378l-3.84 3.84L7.245 77.72A10.875 10.875 0 000 87.96v10.575a1.465 1.465 0 002.93 0V87.96a7.941 7.941 0 015.29-7.477l9.813-3.463 3.157 6.313a3.014 3.014 0 002.09 1.61 3.013 3.013 0 002.56-.638l6.278-5.23c.063.137.121.278.175.42l2.344 6.253a3.006 3.006 0 002.838 1.966c1.275 0 2.39-.772 2.837-1.966l2.344-6.252a6.55 6.55 0 01.177-.42l6.276 5.23a3.012 3.012 0 002.56.638 3.014 3.014 0 002.09-1.611l1.038-2.076v17.28a1.465 1.465 0 002.93 0V77.45a4.603 4.603 0 00-3.066-4.334l-3.127-1.103a4.805 4.805 0 01-3.2-4.525v-4.844a21.979 21.979 0 008.688-9.264c.88 3.014 2.489 5.287 4.062 7.507 2.403 3.39 4.673 6.593 4.673 12.598 0 4.12-.936 6.905-2.02 10.13-1.254 3.735-2.677 7.968-2.677 14.92a1.465 1.465 0 002.93 0c0-6.473 1.283-10.292 2.524-13.986.41-1.22.81-2.414 1.155-3.664a7.943 7.943 0 014.35 7.074v10.576a1.465 1.465 0 002.93 0V87.96c0-4.373-2.638-8.31-6.627-9.998zm.546-38.92v6.263c0 .919-.747 1.666-1.666 1.666h-1.666v-9.595h1.666c.919 0 1.666.748 1.666 1.666zM9.374 46.97H7.707a1.668 1.668 0 01-1.666-1.667v-6.262c0-.92.747-1.667 1.666-1.667h1.667v9.595zm.379-12.526h-.581V20.252c0-9.551 7.771-17.322 17.323-17.322h21.92c9.551 0 17.322 7.77 17.322 17.323v14.191h-.58a3.032 3.032 0 00-2.652-1.566h-.08V20.253c0-7.714-6.277-13.99-13.99-13.99h-21.92c-7.714 0-13.99 6.276-13.99 13.99V32.88h-.12c-1.14 0-2.135.633-2.652 1.565zm9.058-4.954a1.465 1.465 0 001.699 1.186c11.115-1.98 19.992-10.537 22.446-21.484h3.408C43.645 22.89 32.1 33.207 18.123 34.34a3.029 3.029 0 00-2.588-1.46h-.08V20.253c0-6.1 4.962-11.06 11.06-11.06h13.429C37.55 18.686 29.732 26.057 19.996 27.79a1.465 1.465 0 00-1.185 1.7zm-6.508 18.944V35.91a.1.1 0 01.101-.1h3.131a.1.1 0 01.101.1v12.525a.1.1 0 01-.1.101h-3.132a.101.101 0 01-.1-.1zm9.837 11.06h-.342c-4.737 0-8.675-3.487-9.381-8.03h3.119c.502 0 .976-.124 1.394-.342a21.867 21.867 0 005.268 8.21c-.02.054-.04.108-.058.163zm4.355 3.132a1.668 1.668 0 01-1.667-1.666c0-.92.748-1.667 1.667-1.667h1.566c.919 0 1.666.748 1.666 1.667s-.748 1.666-1.666 1.666h-1.566zm-2.53 19.427a.093.093 0 01-.085.022c-.048-.01-.063-.041-.07-.054l-3.34-6.681 3.042-3.043a.1.1 0 01.127-.013l6.225 4.15c.155.104.305.213.45.329l-6.35 5.29zm24.89-8.131a7.696 7.696 0 001.705.853l3.126 1.104c.15.053.289.13.415.22l-2.962 5.922a.09.09 0 01-.069.054.094.094 0 01-.085-.022l-6.348-5.29a7.37 7.37 0 01.448-.329l3.77-2.512zm7.488-38.013v7.858c-.016 10.4-8.486 18.859-18.888 18.859a1.465 1.465 0 100 2.93c2.803 0 5.485-.533 7.949-1.5v3.432c0 1.578.483 3.076 1.33 4.326l-3.274 2.182a9.238 9.238 0 00-3.547 4.47l-2.344 6.251c-.014.037-.024.066-.094.066s-.08-.03-.095-.066l-2.344-6.252a9.238 9.238 0 00-3.546-4.469l-3.27-2.179a7.672 7.672 0 001.326-4.33v-2.18a4.603 4.603 0 003.111-4.348 4.601 4.601 0 00-4.596-4.596h-1.566c-.891 0-1.724.256-2.429.697a18.937 18.937 0 01-5.5-13.3v-6.518c10.115-.88 19.047-6.163 24.761-13.998 4.493 5.15 8.83 7.892 9.028 8.015a1.464 1.464 0 001.553-2.484c-.046-.029-4.517-2.865-8.897-8.068a34.11 34.11 0 004.328-11.475c5.677.462 10.156 5.226 10.156 11.02v12.626h-.121a3.035 3.035 0 00-3.03 3.031zm2.93 12.525V35.91a.1.1 0 01.1-.1h3.132a.1.1 0 01.1.1v12.525a.1.1 0 01-.1.101h-3.131a.1.1 0 01-.101-.1z" fill="#fff"/><path d="M45.303 46.97H29.647a1.465 1.465 0 00-1.434 1.761c.892 4.306 4.787 7.43 9.262 7.43 4.475 0 8.37-3.125 9.263-7.43a1.465 1.465 0 00-1.435-1.762zm-7.828 6.262c-2.435 0-4.62-1.328-5.737-3.333h11.474c-1.118 2.005-3.302 3.333-5.737 3.333z" fill="#fff"/></svg>