<svg width="9" height="27" fill="none" xmlns="http://www.w3.org/2000/svg"><path fill-rule="evenodd" clip-rule="evenodd" d="M4.5 0a.5.5 0 01.5.5v.917a.5.5 0 01-1 0V.5a.5.5 0 01.5-.5zm0 4.583a.5.5 0 01.5.5v1.834a.5.5 0 11-1 0V5.083a.5.5 0 01.5-.5zm0 5.5a.5.5 0 01.5.5v1.834a.5.5 0 01-1 0v-1.834a.5.5 0 01.5-.5zm0 5.5a.5.5 0 01.5.5v1.834a.5.5 0 01-1 0v-1.834a.5.5 0 01.5-.5zm0 5.5a.5.5 0 01.5.5v.917a.5.5 0 01-1 0v-.917a.5.5 0 01.5-.5z" fill="#fff"/><path d="M5.372 26.45a1 1 0 01-1.743 0l-2.79-4.96A1 1 0 011.71 20h5.58a1 1 0 01.872 1.49l-2.79 4.96z" fill="#fff"/></svg>