<svg width="123" height="9" fill="none" xmlns="http://www.w3.org/2000/svg"><path fill-rule="evenodd" clip-rule="evenodd" d="M0 4.5A.5.5 0 01.5 4h.992a.5.5 0 010 1H.5a.5.5 0 01-.5-.5zm4.958 0a.5.5 0 01.5-.5h1.984a.5.5 0 010 1H5.458a.5.5 0 01-.5-.5zm5.95 0a.5.5 0 01.5-.5h1.984a.5.5 0 010 1h-1.984a.5.5 0 01-.5-.5zm5.95 0a.5.5 0 01.5-.5h1.984a.5.5 0 010 1h-1.984a.5.5 0 01-.5-.5zm5.95 0a.5.5 0 01.5-.5h1.984a.5.5 0 010 1h-1.984a.5.5 0 01-.5-.5zm5.95 0a.5.5 0 01.5-.5h1.984a.5.5 0 010 1h-1.984a.5.5 0 01-.5-.5zm5.95 0a.5.5 0 01.5-.5h1.984a.5.5 0 010 1h-1.984a.5.5 0 01-.5-.5zm5.95 0a.5.5 0 01.5-.5h1.984a.5.5 0 010 1h-1.984a.5.5 0 01-.5-.5zm5.95 0a.5.5 0 01.5-.5h1.984a.5.5 0 010 1h-1.984a.5.5 0 01-.5-.5zm5.95 0a.5.5 0 01.5-.5h1.984a.5.5 0 010 1h-1.984a.5.5 0 01-.5-.5zm5.95 0a.5.5 0 01.5-.5h1.984a.5.5 0 010 1h-1.984a.5.5 0 01-.5-.5zm5.95 0a.5.5 0 01.5-.5h1.984a.5.5 0 010 1h-1.984a.5.5 0 01-.5-.5zm5.95 0a.5.5 0 01.5-.5h1.984a.5.5 0 010 1h-1.984a.5.5 0 01-.5-.5zm5.95 0a.5.5 0 01.5-.5h1.984a.5.5 0 010 1h-1.984a.5.5 0 01-.5-.5zm5.95 0a.5.5 0 01.5-.5h1.984a.5.5 0 010 1h-1.984a.5.5 0 01-.5-.5zm5.95 0a.5.5 0 01.5-.5h1.984a.5.5 0 010 1h-1.984a.5.5 0 01-.5-.5zm5.95 0a.5.5 0 01.5-.5h1.984a.5.5 0 010 1h-1.984a.5.5 0 01-.5-.5zm5.95 0a.5.5 0 01.5-.5h1.984a.5.5 0 010 1h-1.984a.5.5 0 01-.5-.5zm5.95 0a.5.5 0 01.5-.5h1.984a.5.5 0 010 1h-1.984a.5.5 0 01-.5-.5zm5.95 0a.5.5 0 01.5-.5h1.984a.5.5 0 010 1h-1.984a.5.5 0 01-.5-.5zm5.95 0a.5.5 0 01.5-.5h.992a.5.5 0 010 1h-.992a.5.5 0 01-.5-.5z" fill="#fff"/><path d="M122.451 3.629a1 1 0 010 1.743l-4.961 2.79A1 1 0 01116 7.29V1.71a1 1 0 011.49-.872l4.961 2.79z" fill="#fff"/></svg>