<svg version="1.1" id="Layer_1" xmlns="http://www.w3.org/2000/svg" x="0" y="0" viewBox="0 0 122.88 96.44" fill="#fff" xml:space="preserve"><path d="M50.44 83.01c3.4 10.01 17.62 10.38 20.82 0 3.76 3.39 14.9 4.06 19.04 6.38 1.31.73 2.49 1.66 3.45 2.92.64.84 1.49 2.4 2.14 4.14H25.81c.65-1.74 1.5-3.3 2.14-4.14.95-1.26 2.14-2.19 3.45-2.92 4.14-2.32 15.27-3 19.04-6.38zm52.34-36.88h-7.93c-1.21 0-2.26.43-3.12 1.28-.86.86-1.28 1.9-1.28 3.12v7.73c0 1.23.43 2.27 1.28 3.12.86.86 1.9 1.28 3.12 1.28h3.4c-.25.97-.56 1.89-.95 2.76-.38.87-1.03 1.71-1.93 2.51 1.72-.45 3.25-1.12 4.6-2 1.34-.88 2.51-1.98 3.47-3.27h2.92c1.22 0 2.26-.44 3.12-1.28.87-.86 1.28-1.9 1.28-3.12v-7.73c0-1.22-.43-2.26-1.28-3.12-.85-.86-1.9-1.28-3.12-1.28h-3.58zm20.1 8.88v7.73c0 .7-.12 1.36-.38 1.97-.25.61-.62 1.17-1.13 1.67-.21.21-.45.41-.68.57-.24.18-.5.32-.75.45-.01.01-.03.01-.04.02-.33.16-.67.26-1.02.34-.37.08-.75.12-1.14.12h-2.43c.05.15.1.31.16.47.14.43.32.85.5 1.28v.01c.17.39.4.76.68 1.13.29.38.64.75 1.06 1.13.3.26.33.72.06 1.02-.18.21-.47.29-.72.23-.89-.24-1.75-.53-2.55-.88-.8-.35-1.56-.76-2.27-1.23-.7-.46-1.36-.98-1.97-1.56-.52-.49-1-1.02-1.46-1.59h-2.55c-.48 0-.94-.06-1.38-.17-.44-.12-.86-.3-1.26-.54a.716.716 0 01-.24-.99c.2-.34.65-.45.99-.24a3.607 3.607 0 001.89.51h2.91c.22 0 .44.1.58.29.46.61.96 1.18 1.52 1.69.54.52 1.14.98 1.78 1.4.61.4 1.26.76 1.95 1.07-.14-.23-.24-.45-.35-.67-.19-.45-.38-.91-.54-1.39-.16-.46-.3-.93-.43-1.41a.727.727 0 01-.04-.25c0-.4.32-.73.73-.73h3.39c.29 0 .56-.03.83-.09.25-.06.49-.14.71-.24.01-.01.02-.01.03-.02a3.498 3.498 0 001.03-.74c.36-.36.63-.76.81-1.19.18-.43.26-.9.26-1.42v-7.73c0-.52-.09-.99-.26-1.42a3.55 3.55 0 00-.81-1.19c-.36-.36-.76-.63-1.19-.81-.43-.18-.9-.26-1.42-.26h-3.6c-.4 0-.73-.32-.73-.73 0-.4.32-.73.73-.73h3.6c.7 0 1.35.13 1.96.38.61.25 1.16.62 1.66 1.12.5.5.88 1.05 1.12 1.67.26.61.38 1.26.38 1.96h.02v-.01zM14.97 40.47c-.07 0-.13-.01-.19-.03a.58.58 0 01-.58-.58v-1.14H8.59v1.14c0 .29-.23.55-.52.57-.06.02-.13.03-.2.03H5.75v2.36h11.07v-2.36h-1.87l.02.01zm-9.76 14.2a1.14 1.14 0 11-1.14 1.14c-.01-.63.5-1.14 1.14-1.14zm-1.32-2.81a.513.513 0 01.14-.71c.24-.16.55-.09.71.14l.28.41 1.11-1.35c.18-.22.5-.25.72-.07.22.18.25.5.07.72l-1.53 1.87a.515.515 0 01-.83-.03l-.67-.98zm0-3.95a.513.513 0 01.14-.71c.24-.16.55-.1.71.14l.28.41 1.11-1.35c.18-.22.5-.25.72-.07.22.18.25.5.07.72l-1.53 1.87c-.03.04-.07.08-.12.12-.23.16-.55.09-.71-.14l-.67-.99zm11.88 17.51a.61.61 0 01-.39.15c-.03 0-.06 0-.09-.01H1.28c-.35 0-.67-.14-.91-.38-.23-.23-.37-.54-.37-.9V42.1c0-.36.14-.67.38-.91.23-.23.55-.38.91-.38h3.33v-.63c0-.24.09-.45.26-.61.15-.15.37-.26.61-.26h1.97v-.79c0-.26.11-.5.29-.67.17-.17.41-.28.67-.28h6.01a.953.953 0 01.95.95v.79h1.78c.23 0 .45.1.61.26.15.15.26.37.26.61v.63h3.33c.36 0 .67.14.91.38.23.24.38.55.38.91v16c.05.23 0 .41-.17.58l-6.62 6.7c-.02.02-.03.03-.05.04h-.04zm-.97-1.01c0-7.66-.97-6.75 6.66-6.75V42.1c0-.03-.01-.07-.04-.09a.127.127 0 00-.09-.04H18v1.16c0 .24-.09.45-.25.61a.87.87 0 01-.61.25H5.47c-.23 0-.46-.1-.61-.25-.02-.02-.03-.04-.05-.06a.881.881 0 01-.2-.55v-1.16H1.27c-.03 0-.07.01-.09.04-.02.02-.04.06-.04.09v22.18c0 .04.01.07.04.09.02.02.05.04.09.04H14.8zm-5.41-8.2c-.31 0-.58-.26-.58-.58 0-.31.25-.58.58-.58h5.5a.58.58 0 010 1.16h-5.5zm0-8.27a.58.58 0 010-1.16h8.47a.58.58 0 010 1.16H9.39zm0 4.14a.58.58 0 010-1.16h8.47a.58.58 0 010 1.16H9.39zM70.88 4.16A14.156 14.156 0 0060.84 0c-3.92 0-7.47 1.59-10.04 4.16a14.156 14.156 0 00-4.16 10.04c0 3.92 1.59 7.47 4.16 10.04 2.57 2.57 6.12 4.16 10.04 4.16 3.92 0 7.47-1.59 10.04-4.16 2.57-2.57 4.16-6.12 4.16-10.04 0-3.92-1.59-7.47-4.16-10.04zM60.6 7.3h-1.8c-.02 0-.05.01-.06.03-.02.02-.03.04-.03.06v9.42h8.81c.02 0 .05-.01.06-.03.02-.02.03-.04.03-.06v-1.8c0-.02-.01-.05-.03-.06-.02-.02-.04-.03-.06-.03H61.2c-.28 0-.51-.23-.51-.51V7.39c0-.02-.01-.04-.02-.05l-.01-.01c-.01-.02-.04-.03-.06-.03zm.24-4.98c3.28 0 6.25 1.33 8.4 3.48 2.15 2.15 3.48 5.12 3.48 8.4 0 3.28-1.33 6.25-3.48 8.4a11.843 11.843 0 01-8.4 3.48c-3.28 0-6.25-1.33-8.4-3.48a11.843 11.843 0 01-3.48-8.4c0-3.28 1.33-6.25 3.48-8.4a11.86 11.86 0 018.4-3.48zM13.93 92.8c.53 1.18 0 2.56-1.18 3.09-1.18.53-2.56 0-3.08-1.18A55.15 55.15 0 016.5 85.6c-.77-3.08-1.29-6.27-1.52-9.54a2.34 2.34 0 114.67-.33c.21 2.99.69 5.91 1.4 8.73.72 2.9 1.69 5.69 2.88 8.34zm12.38-58.36c-.96.86-2.44.78-3.3-.18a2.34 2.34 0 01.18-3.3c2.18-1.95 4.74-3.95 7.38-5.67 2.36-1.54 4.81-2.88 7.14-3.78 1.2-.46 2.56.13 3.02 1.34.46 1.2-.13 2.56-1.34 3.02-2.01.78-4.17 1.96-6.28 3.34a59.227 59.227 0 00-6.8 5.23zm54.6-8.49a2.335 2.335 0 01-1.17-3.09c.53-1.18 1.92-1.7 3.09-1.17a55.45 55.45 0 0110.29 6.07c3.19 2.38 6.13 5.12 8.76 8.15.84.98.74 2.45-.24 3.3-.98.84-2.45.74-3.3-.24a50.718 50.718 0 00-8.03-7.45c-2.9-2.19-6.06-4.06-9.4-5.57zm29.35 52.85a2.333 2.333 0 012.62-2.01c1.28.17 2.18 1.34 2.01 2.62-.35 2.64-.88 5.2-1.58 7.68-.71 2.54-1.6 5-2.65 7.36-.52 1.18-1.9 1.72-3.09 1.2s-1.72-1.9-1.2-3.09c.97-2.18 1.78-4.43 2.43-6.74a47.54 47.54 0 001.46-7.02zM47.83 62.26c-.72.03-1.26.18-1.62.42-.21.14-.37.32-.47.54-.11.24-.16.53-.15.86.03.98.54 2.26 1.53 3.73l.02.02 3.22 5.12C51.65 75 53 77.1 54.69 78.63c1.62 1.48 3.58 2.48 6.17 2.48 2.81.01 4.87-1.03 6.53-2.59 1.73-1.62 3.1-3.85 4.45-6.07l3.62-5.97c.68-1.54.92-2.57.77-3.18-.09-.36-.49-.54-1.17-.57-.14-.01-.29-.01-.44-.01l-.51.03c-.1.01-.19 0-.28-.02-.32.02-.66-.01-.99-.05l1.24-4.98c-9.21 1.45-16.1-5.39-25.84-1.37l.7 5.96c-.4.03-.77.02-1.11-.03zm28.46-1.16c.89.27 1.47.84 1.7 1.75.26 1.01-.02 2.45-.88 4.4-.02.04-.03.07-.05.1l-3.67 6.04c-1.41 2.33-2.85 4.66-4.77 6.46-1.98 1.86-4.43 3.09-7.77 3.08-3.12-.01-5.47-1.2-7.4-2.96-1.86-1.7-3.29-3.9-4.64-6.05l-3.22-5.12c-1.18-1.75-1.79-3.36-1.83-4.68-.02-.62.09-1.18.32-1.68.24-.52.61-.95 1.11-1.29.23-.16.49-.29.78-.4-.21-2.78-.29-5.76-.15-8.69.07-.69.2-1.39.4-2.08.82-2.94 2.89-4.28 5.44-5.91 1.41-.9 2.95-1.57 4.56-2.03 1.02-.29-.87-3.56.19-3.67 5.11-.52 13.38 4.14 16.95 8 1.79 1.93 2.91 3.47 3.15 6.87l-.22 7.86z" fill-rule="evenodd" clip-rule="evenodd"/></svg>