<svg width="100" height="100" fill="none" xmlns="http://www.w3.org/2000/svg"><path d="M66.128 18.55a2.422 2.422 0 012.42-2.42 2.422 2.422 0 012.419 2.42v.747c0 .647-.251 1.253-.708 1.712l-.863.862a5.61 5.61 0 00-1.655 3.994v1.555h3.226v-1.555c0-.647.252-1.253.708-1.711l.863-.863a5.61 5.61 0 001.654-3.994v-.748a5.651 5.651 0 00-5.645-5.645 5.652 5.652 0 00-5.645 5.645v2.42h3.226v-2.42zm1.613 12.096h3.226v3.226H67.74v-3.226z" fill="#fff"/><path d="M99.378 22.92l-7.442-5.788V8.065c0-.89-.723-1.613-1.613-1.613h-12.12L70.347.34a1.61 1.61 0 00-1.884-.067l-9.273 6.18H48.387c-.89 0-1.613.723-1.613 1.613v8.903l-7.46 5.968a1.61 1.61 0 00-.604 1.258v8.065H8.065a4.845 4.845 0 00-4.84 4.838v46.775H1.614c-.89 0-1.613.722-1.613 1.613v6.451c0 4.447 3.618 8.065 8.065 8.065h70.967c4.448 0 8.065-3.618 8.065-8.065v-6.451c0-.891-.722-1.613-1.613-1.613H83.87V54.84h14.516c.89 0 1.613-.724 1.613-1.613V24.194c0-.498-.23-.968-.622-1.274zm-33.63 15.79L41.936 50.617V26.804L65.75 38.71zM40.324 54.84h33.87v22.58h-61.29V41.936H38.71v11.29c0 .89.723 1.614 1.613 1.614zm6.832-3.226l22.2-11.1 22.2 11.1h-44.4zM72.962 38.71l23.812-11.907v23.814L72.962 38.71zm22.414-14.814l-3.44 1.72V21.22l3.44 2.676zM69.282 3.6l3.666 2.851h-7.944L69.282 3.6zM88.71 9.678V27.23l-19.355 9.678L50 27.23V9.678h38.71zM46.774 25.617L43.3 23.879l3.475-2.782v4.52zm37.097 66.32a4.845 4.845 0 01-4.839 4.838H8.065a4.845 4.845 0 01-4.84-4.839v-4.839h19.356v1.613a4.845 4.845 0 004.838 4.84h32.258a4.844 4.844 0 004.84-4.84v-1.612H83.87v4.838zm-58.064-4.84H61.29v1.613c0 .889-.723 1.613-1.613 1.613H27.42a1.616 1.616 0 01-1.613-1.613v-1.612zm54.838-3.225H6.452V37.097c0-.889.724-1.612 1.613-1.612H38.71v3.225H11.29c-.89 0-1.613.723-1.613 1.613v38.71c0 .89.723 1.613 1.613 1.613h64.516c.891 0 1.613-.723 1.613-1.613V54.839h3.226v29.033z" fill="#fff"/></svg>