<svg width="100" height="83" fill="none" xmlns="http://www.w3.org/2000/svg"><path d="M94.922 35.938H38.975c-.568-3.754-3.816-6.641-7.725-6.641-3.91 0-7.157 2.887-7.725 6.64H5.078A5.084 5.084 0 000 41.017c0 2.8 2.278 5.078 5.078 5.078h18.447c.568 3.753 3.816 6.64 7.725 6.64 3.91 0 7.157-2.887 7.725-6.64h55.947c2.8 0 5.078-2.278 5.078-5.078 0-2.8-2.278-5.078-5.078-5.078zM3.906 41.016c0-.636.537-1.172 1.172-1.172h18.36v2.343H5.078a1.188 1.188 0 01-1.172-1.171zm31.25 3.906a3.91 3.91 0 01-3.906 3.906 3.91 3.91 0 01-3.906-3.906v-7.813a3.91 3.91 0 013.906-3.906 3.91 3.91 0 013.906 3.906v7.813zm59.766-2.734h-55.86v-2.344h55.86c.635 0 1.172.536 1.172 1.172 0 .634-.537 1.172-1.172 1.172zM16.75 10.547h.054a1.953 1.953 0 100-3.906h-.053a1.953 1.953 0 100 3.906z" fill="#fff"/><path d="M5.078 16.797h67.667c.567 3.753 3.814 6.64 7.724 6.64s7.157-2.887 7.725-6.64h6.728c2.8 0 5.078-2.278 5.078-5.078 0-2.8-2.278-5.078-5.078-5.078h-6.728C87.626 2.887 84.377 0 80.469 0c-3.91 0-7.157 2.887-7.724 6.64H24.609a1.953 1.953 0 100 3.907h48.047v2.344H5.078a1.188 1.188 0 01-1.172-1.172c0-.636.537-1.172 1.172-1.172h6.062a1.953 1.953 0 100-3.906H5.078A5.084 5.084 0 000 11.719c0 2.8 2.278 5.078 5.078 5.078zm91.016-5.078c0 .635-.537 1.172-1.172 1.172h-6.64v-2.344h6.64c.635 0 1.172.536 1.172 1.172zM76.563 7.813a3.91 3.91 0 013.906-3.907 3.91 3.91 0 013.906 3.906v7.813a3.91 3.91 0 01-3.906 3.906 3.91 3.91 0 01-3.906-3.906V7.812zm18.359 57.421H88.86a1.953 1.953 0 000 3.907h6.062c.635 0 1.172.536 1.172 1.171s-.537 1.172-1.172 1.172h-25.39v-2.343h5.859a1.953 1.953 0 100-3.907h-5.948c-.567-3.754-3.815-6.64-7.724-6.64-3.91 0-7.157 2.886-7.725 6.64H5.078A5.084 5.084 0 000 70.313c0 2.8 2.278 5.078 5.078 5.078h48.916c.568 3.753 3.815 6.64 7.725 6.64 3.91 0 7.157-2.887 7.724-6.64h25.479c2.8 0 5.078-2.279 5.078-5.079s-2.278-5.078-5.078-5.078zM3.906 70.313c0-.636.537-1.172 1.172-1.172h48.828v2.343H5.078a1.188 1.188 0 01-1.172-1.171zm61.719 3.906a3.91 3.91 0 01-3.906 3.906 3.91 3.91 0 01-3.907-3.906v-7.813A3.91 3.91 0 0161.72 62.5a3.91 3.91 0 013.906 3.906v7.813z" fill="#fff"/><path d="M83.249 69.14a1.953 1.953 0 100-3.906h-.053a1.953 1.953 0 100 3.907h.053z" fill="#fff"/></svg>