<svg id="Layer_1" data-name="Layer 1" xmlns="http://www.w3.org/2000/svg" viewBox="0 0 122.88 117.2" fill="#fff"><path d="M41 81.44a2.79 2.79 0 01-2.48-3 2.72 2.72 0 012.48-3h12.3a2.78 2.78 0 012.48 3 2.72 2.72 0 01-2.48 3zM25.48 21.16a1.67 1.67 0 012.38 0 1.71 1.71 0 010 2.4L25 26.46l2.88 2.92a1.69 1.69 0 010 2.38 1.67 1.67 0 01-2.37 0l-2.85-2.9-2.86 2.9a1.67 1.67 0 01-2.38 0 1.71 1.71 0 010-2.4l2.87-2.91-2.87-2.91a1.7 1.7 0 010-2.39 1.67 1.67 0 012.37 0l2.85 2.9 2.86-2.9zm53.18 72c3.5 10.3 18.14 10.69 21.44 0 3.87 3.49 11.43 4.19 15.7 6.56 6.58 3.65 6.26 7.09 7.08 13.63-.21 2.3-1.52 3.63-4.1 3.83H60c-2.58-.2-3.88-1.53-4.1-3.83.72-5.73 1.61-10.56 7.09-13.63C68 96.91 74.43 97 78.66 93.18zm-3-18.9a2.52 2.52 0 00-1.24.39 1 1 0 00-.43.49 1.7 1.7 0 00-.14.81 8.22 8.22 0 001.57 3.78L78.71 85a28.35 28.35 0 004.43 5.82 8.92 8.92 0 006.25 2.51A9.13 9.13 0 0096 90.72a29.56 29.56 0 004.56-6.22l3.72-6.13c.76-1.72 1-2.78.74-3.29-.14-.29-.65-.39-1.49-.35a3.76 3.76 0 01-2-.06l1.47-4.25c-6.83-.08-11.5-1.27-17-4.8-1.82-1.16-2.37-2.49-4.18-2.36a6.17 6.17 0 00-3.43 1.86 8.92 8.92 0 00-2 3.89l1.1 5.3a3.67 3.67 0 01-1.88 0zm29.66-1.53a2.59 2.59 0 011.68 1.4c.56 1.12.33 2.79-.72 5.18l-.06.13-3.78 6.22a31 31 0 01-4.93 6.68 11.3 11.3 0 01-8.12 3.22 11.06 11.06 0 01-7.72-3.09 29.8 29.8 0 01-4.8-6.27l-3.31-5.26a9.86 9.86 0 01-1.91-4.89 3.89 3.89 0 01.35-1.8 3.21 3.21 0 011.2-1.39 4.17 4.17 0 01.87-.44 58.92 58.92 0 01-.13-7.77 11.95 11.95 0 016-9.29 14.79 14.79 0 013-1.46c6.37-2.31 14.8-1 19.32 3.84a12.8 12.8 0 013.24 8.12l-.21 6.89zm-62 38.51a3 3 0 110 5.94H7a7 7 0 01-4.95-2.08 6.87 6.87 0 01-2.08-5V7a6.87 6.87 0 012.11-4.92A6.87 6.87 0 017 0h85.9a7 7 0 014.95 2.08A6.87 6.87 0 01100 7v31.37a3 3 0 11-5.94 0V7a.9.9 0 00-.3-.69A.9.9 0 0093 6H7a.9.9 0 00-.69.3A.77.77 0 006 7v103.36a1 1 0 001 1l36.27-.1zM18.63 73.41h10.6a.94.94 0 011 1v9.12a.94.94 0 01-1 1h-10.6a.94.94 0 01-1-1V74.4a.94.94 0 011-1zM41 29a2.78 2.78 0 01-2.48-3A2.72 2.72 0 0141 23h34.39a2.79 2.79 0 012.48 3 2.72 2.72 0 01-2.48 3zM21.7 56.87a1.72 1.72 0 01-2.28-.3l-.2-.2-3.17-3.27a1.79 1.79 0 01.3-2.57 2.09 2.09 0 012.77-.1l1.68 1.78 5.55-4.46a1.74 1.74 0 012.48.6 2 2 0 01-.2 2.77l-6.93 5.75zm17.63-2.58a2.78 2.78 0 01-2.48-3 2.71 2.71 0 012.48-3h27.5a2.77 2.77 0 012.47 3 2.71 2.71 0 01-2.47 3z" fill-rule="evenodd"/></svg>