<svg width="100" height="97" fill="none" xmlns="http://www.w3.org/2000/svg"><path d="M50 43.483c-.243 0-.485-.054-.71-.16L20.957 29.946a1.675 1.675 0 010-3.027l28.333-13.38c.45-.212.97-.212 1.42 0l28.333 13.38a1.675 1.675 0 010 3.027L50.71 43.324a1.671 1.671 0 01-.71.159zM25.582 28.43L50 39.962l24.418-11.531L50 16.9 25.582 28.43z" fill="#fff"/><path d="M50 56.862c-.255 0-.512-.059-.745-.176l-20-10.034a1.675 1.675 0 01-.922-1.497v-12.79c0-.571.292-1.105.774-1.41a1.665 1.665 0 011.601-.103L50 39.962l19.29-9.11a1.67 1.67 0 012.377 1.514v12.789c0 .634-.357 1.212-.922 1.497l-20 10.034c-.233.117-.49.176-.745.176zm-18.333-12.74L50 53.318l18.333-9.198V35L50.71 43.325c-.45.212-.97.212-1.42 0l-17.623-8.322v9.12zm46.666-14.019H50a1.67 1.67 0 01-1.667-1.672A1.67 1.67 0 0150 26.758h28.333c.92 0 1.667.75 1.667 1.673a1.67 1.67 0 01-1.667 1.672z" fill="#fff"/><path d="M78.333 45.155a1.67 1.67 0 01-1.666-1.673V28.431a1.67 1.67 0 011.666-1.673c.92 0 1.667.75 1.667 1.673v15.051a1.67 1.67 0 01-1.667 1.673zM50 33.448a1.67 1.67 0 01-1.667-1.672v-6.69A1.67 1.67 0 0150 23.414c.92 0 1.667.75 1.667 1.672v6.69A1.67 1.67 0 0150 33.448z" fill="#fff"/><path d="M74.998 50.172a1.66 1.66 0 01-.923-.28 1.677 1.677 0 01-.462-2.32l3.334-5.018a1.66 1.66 0 012.311-.463c.765.512.972 1.55.462 2.32l-3.333 5.017c-.322.483-.85.744-1.389.744z" fill="#fff"/><path d="M81.668 50.172c-.538 0-1.066-.26-1.388-.744l-3.333-5.017a1.678 1.678 0 01.461-2.32 1.66 1.66 0 012.312.463l3.333 5.018c.51.767.304 1.808-.461 2.32-.285.19-.607.28-.924.28zM50 48.5a1.67 1.67 0 01-1.667-1.673V41.81A1.67 1.67 0 0150 40.138c.92 0 1.667.749 1.667 1.672v5.017A1.67 1.67 0 0150 48.5z" fill="#fff"/><path d="M98.333 63.551H1.667A1.67 1.67 0 010 61.88V6.691C0 3.002 2.992 0 6.668 0h86.664C97.008 0 100 3.002 100 6.691V61.88a1.67 1.67 0 01-1.667 1.672zm-95-3.344h93.334V6.69a3.343 3.343 0 00-3.335-3.346H6.668c-1.84 0-3.335 1.5-3.335 3.346v53.516z" fill="#fff"/><path d="M93.332 76.93H6.668c-3.676 0-6.668-3-6.668-6.69v-8.36a1.67 1.67 0 011.667-1.673h96.666c.92 0 1.667.749 1.667 1.672v8.36c0 3.69-2.992 6.692-6.668 6.692zM3.333 63.552v6.689a3.343 3.343 0 003.335 3.346h86.664c1.84 0 3.335-1.5 3.335-3.346v-6.688H3.333z" fill="#fff"/><path d="M55 70.241H45a1.67 1.67 0 01-1.667-1.672A1.67 1.67 0 0145 66.896h10c.92 0 1.667.75 1.667 1.673A1.67 1.67 0 0155 70.24zm36.667-6.689H8.333a1.67 1.67 0 01-1.666-1.673V8.362A1.67 1.67 0 018.333 6.69h83.334c.92 0 1.666.75 1.666 1.672V61.88a1.67 1.67 0 01-1.666 1.673zM10 60.207h80V10.035H10v50.172zM71.667 97H28.333c-2.756 0-5-2.251-5-5.017 0-2.766 2.244-5.017 5-5.017h43.334c2.756 0 5 2.25 5 5.017 0 2.766-2.244 5.017-5 5.017zm-43.334-6.69a1.672 1.672 0 000 3.345h43.334a1.672 1.672 0 000-3.345H28.333z" fill="#fff"/><path d="M68.333 90.31H31.667A1.67 1.67 0 0130 88.638a1.67 1.67 0 011.667-1.673c5.53 0 8.333-3.938 8.333-11.707a1.67 1.67 0 011.667-1.672h16.666c.92 0 1.667.75 1.667 1.672 0 7.769 2.803 11.707 8.333 11.707.92 0 1.667.75 1.667 1.673a1.67 1.67 0 01-1.667 1.672zm-28.548-3.345h20.432c-2.054-2.28-3.262-5.678-3.504-10.034H43.288c-.243 4.356-1.45 7.753-3.503 10.034z" fill="#fff"/></svg>