<svg width="447" height="133" fill="none" xmlns="http://www.w3.org/2000/svg"><path d="M.28 11.112c0-3.328 1.184-5.856 3.552-7.584C6.264 1.8 9.784.936 14.392.936v28.128h26.976V11.112c0-3.328 1.184-5.856 3.552-7.584C47.352 1.8 50.872.936 55.48.936v58.752c0 3.328-1.216 5.856-3.648 7.584-2.368 1.728-5.856 2.592-10.464 2.592V41.256H14.392v18.432c0 3.328-1.216 5.856-3.648 7.584C8.376 69 4.888 69.864.28 69.864V11.112zm84.017 58.752c-4.224 0-8.064-.768-11.52-2.304-3.456-1.536-6.176-3.648-8.16-6.336-1.984-2.752-2.976-5.856-2.976-9.312V39.144c0-3.52.96-6.72 2.88-9.6 1.92-2.944 4.608-5.248 8.064-6.912 3.456-1.664 7.36-2.496 11.712-2.496 4.352 0 8.256.832 11.712 2.496 3.456 1.664 6.144 3.968 8.064 6.912 1.92 2.88 2.88 6.08 2.88 9.6v12.768c0 3.456-.992 6.56-2.976 9.312-1.984 2.688-4.704 4.8-8.16 6.336-3.456 1.536-7.296 2.304-11.52 2.304zm0-11.328c3.008 0 5.344-.672 7.008-2.016 1.664-1.344 2.496-3.2 2.496-5.568V39.816c0-2.496-.864-4.512-2.592-6.048-1.664-1.536-3.968-2.304-6.912-2.304s-5.28.768-7.008 2.304c-1.664 1.536-2.496 3.552-2.496 6.048v11.136c0 2.368.832 4.224 2.496 5.568 1.664 1.344 4 2.016 7.008 2.016zm28.858-28.416c0-3.2 1.024-5.664 3.072-7.392 2.048-1.728 5.152-2.592 9.312-2.592V25.8a16.457 16.457 0 00-2.4 3.264l.672.384c2.048-3.072 4.16-5.376 6.336-6.912 2.24-1.6 4.896-2.4 7.968-2.4 5.44 0 9.216 2.72 11.328 8.16 1.6-2.56 3.648-4.544 6.144-5.952 2.496-1.472 5.312-2.208 8.448-2.208 4.352 0 7.808 1.6 10.368 4.8 2.624 3.2 3.936 7.264 3.936 12.192v25.056c0 2.752-1.056 4.736-3.168 5.952-2.112 1.152-5.376 1.728-9.792 1.728V38.28c0-2.176-.48-3.904-1.44-5.184-.96-1.28-2.464-1.92-4.512-1.92-2.048 0-3.776.736-5.184 2.208-1.408 1.408-2.112 3.808-2.112 7.2v21.6c0 2.752-1.056 4.736-3.168 5.952-2.048 1.152-5.248 1.728-9.6 1.728V38.28c0-2.176-.48-3.904-1.44-5.184-.96-1.28-2.432-1.92-4.416-1.92-4.928 0-7.392 3.296-7.392 9.888v21.12c0 2.752-1.056 4.736-3.168 5.952-2.112 1.152-5.376 1.728-9.792 1.728V30.12zm96.785 39.744c-3.968 0-7.648-.8-11.04-2.4-3.328-1.6-5.984-3.776-7.968-6.528s-2.976-5.824-2.976-9.216V39.432c0-3.584.992-6.848 2.976-9.792 2.048-3.008 4.768-5.344 8.16-7.008 3.392-1.664 7.04-2.496 10.944-2.496 3.84 0 7.36.8 10.56 2.4 3.264 1.536 5.824 3.744 7.68 6.624 1.856 2.816 2.784 6.016 2.784 9.6v5.184c0 1.536-.576 2.848-1.728 3.936-1.152 1.024-2.624 1.536-4.416 1.536h-24.192v1.344c0 2.56.768 4.672 2.304 6.336 1.6 1.6 3.936 2.4 7.008 2.4 3.008 0 5.216-.64 6.624-1.92 1.408-1.344 2.112-3.008 2.112-4.992 1.28-.128 2.24-.192 2.88-.192 2.624 0 4.64.544 6.048 1.632 1.408 1.088 2.112 2.688 2.112 4.8 0 1.728-.864 3.456-2.592 5.184-1.728 1.728-4.128 3.136-7.2 4.224-3.008 1.088-6.368 1.632-10.08 1.632zm9.216-29.76V38.76c0-2.56-.864-4.576-2.592-6.048-1.664-1.536-3.872-2.304-6.624-2.304s-4.992.768-6.72 2.304c-1.664 1.472-2.496 3.488-2.496 6.048v1.344h18.432zm20.562-9.984c0-3.2 1.024-5.664 3.072-7.392 2.048-1.728 5.152-2.592 9.312-2.592V25.8a16.457 16.457 0 00-2.4 3.264l.672.384c2.048-3.072 4.16-5.376 6.336-6.912 2.24-1.6 4.896-2.4 7.968-2.4 5.44 0 9.216 2.72 11.328 8.16 1.6-2.56 3.648-4.544 6.144-5.952 2.496-1.472 5.312-2.208 8.448-2.208 4.352 0 7.808 1.6 10.368 4.8 2.624 3.2 3.936 7.264 3.936 12.192v25.056c0 2.752-1.056 4.736-3.168 5.952-2.112 1.152-5.376 1.728-9.792 1.728V38.28c0-2.176-.48-3.904-1.44-5.184-.96-1.28-2.464-1.92-4.512-1.92-2.048 0-3.776.736-5.184 2.208-1.408 1.408-2.112 3.808-2.112 7.2v21.6c0 2.752-1.056 4.736-3.168 5.952-2.048 1.152-5.248 1.728-9.6 1.728V38.28c0-2.176-.48-3.904-1.44-5.184-.96-1.28-2.432-1.92-4.416-1.92-4.928 0-7.392 3.296-7.392 9.888v21.12c0 2.752-1.056 4.736-3.168 5.952-2.112 1.152-5.376 1.728-9.792 1.728V30.12zm91.217 39.744c-3.136 0-6.08-.608-8.832-1.824-2.688-1.28-4.864-3.104-6.528-5.472-1.664-2.432-2.496-5.344-2.496-8.736 0-3.392.896-6.304 2.688-8.736 1.792-2.496 4.16-4.384 7.104-5.664 3.008-1.28 6.272-1.92 9.792-1.92 2.944 0 5.536.448 7.776 1.344 2.304.896 4.448 2.208 6.432 3.936l.48-.576c-1.344-1.216-2.4-2.08-3.168-2.592v-1.248c0-2.432-.896-4.352-2.688-5.76-1.728-1.472-4.192-2.208-7.392-2.208-2.816 0-5.312.512-7.488 1.536a12.895 12.895 0 00-5.28 4.512c-1.536-.384-2.848-1.088-3.936-2.112-1.024-1.088-1.536-2.272-1.536-3.552 0-1.984.864-3.776 2.592-5.376 1.728-1.664 4.064-2.944 7.008-3.84 3.008-.96 6.304-1.44 9.888-1.44 6.976 0 12.352 1.6 16.128 4.8 3.776 3.2 5.664 7.552 5.664 13.056V61.32c0 3.008-.992 5.184-2.976 6.528-1.92 1.344-4.992 2.016-9.216 2.016V66.12c.96-.896 1.728-1.696 2.304-2.4l-.48-.48c-2.112 2.176-4.32 3.84-6.624 4.992-2.304 1.088-5.376 1.632-9.216 1.632zm3.648-9.408c3.072 0 5.472-.576 7.2-1.728 1.728-1.152 2.592-2.816 2.592-4.992 0-2.112-.896-3.776-2.688-4.992-1.728-1.216-4.096-1.824-7.104-1.824-2.688 0-4.832.608-6.432 1.824-1.536 1.216-2.304 2.88-2.304 4.992 0 2.176.768 3.84 2.304 4.992 1.6 1.152 3.744 1.728 6.432 1.728zm52.418 9.408c-5.44 0-9.44-1.568-12-4.704-2.56-3.136-3.84-7.168-3.84-12.096V30.696h-10.176c0-3.264.608-5.696 1.824-7.296 1.216-1.6 2.816-2.4 4.8-2.4h3.744v-7.584c0-2.752 1.056-4.704 3.168-5.856 2.112-1.216 5.312-1.824 9.6-1.824V21h12.768c0 3.456-.64 5.952-1.92 7.488-1.28 1.472-3.392 2.208-6.336 2.208h-4.32v21.888c0 2.112.416 3.648 1.248 4.608.832.896 2.272 1.344 4.32 1.344 2.24 0 4.544-.64 6.912-1.92.704.64 1.248 1.44 1.632 2.4.448.96.672 1.92.672 2.88 0 1.28-.448 2.528-1.344 3.744-.896 1.216-2.272 2.24-4.128 3.072-1.792.768-4 1.152-6.624 1.152zm38.846 0c-3.968 0-7.648-.8-11.04-2.4-3.328-1.6-5.984-3.776-7.968-6.528s-2.976-5.824-2.976-9.216V39.432c0-3.584.992-6.848 2.976-9.792 2.048-3.008 4.768-5.344 8.16-7.008 3.392-1.664 7.04-2.496 10.944-2.496 3.84 0 7.36.8 10.56 2.4 3.264 1.536 5.824 3.744 7.68 6.624 1.856 2.816 2.784 6.016 2.784 9.6v5.184c0 1.536-.576 2.848-1.728 3.936-1.152 1.024-2.624 1.536-4.416 1.536h-24.192v1.344c0 2.56.768 4.672 2.304 6.336 1.6 1.6 3.936 2.4 7.008 2.4 3.008 0 5.216-.64 6.624-1.92 1.408-1.344 2.112-3.008 2.112-4.992 1.28-.128 2.24-.192 2.88-.192 2.624 0 4.64.544 6.048 1.632 1.408 1.088 2.112 2.688 2.112 4.8 0 1.728-.864 3.456-2.592 5.184-1.728 1.728-4.128 3.136-7.2 4.224-3.008 1.088-6.368 1.632-10.08 1.632zm9.216-29.76V38.76c0-2.56-.864-4.576-2.592-6.048-1.664-1.536-3.872-2.304-6.624-2.304s-4.992.768-6.72 2.304c-1.664 1.472-2.496 3.488-2.496 6.048v1.344h18.432zm-131.625 64.448v-.672c0-1.28-.432-2.288-1.296-3.024-.832-.768-1.936-1.152-3.312-1.152s-2.496.384-3.36 1.152c-.832.736-1.248 1.744-1.248 3.024v.672h9.216zm45.744 9.216c1.472 0 2.592-.304 3.36-.912.8-.608 1.2-1.472 1.2-2.592v-6.48c0-1.152-.4-2.032-1.2-2.64-.768-.608-1.888-.912-3.36-.912-1.344 0-2.448.32-3.312.96-.832.608-1.248 1.392-1.248 2.352v6.912c0 .928.416 1.712 1.248 2.352.864.64 1.968.96 3.312.96zm30.802-9.888v.672h-9.216v-.672c0-1.28.416-2.288 1.248-3.024.864-.768 1.984-1.152 3.36-1.152s2.48.384 3.312 1.152c.864.736 1.296 1.744 1.296 3.024z" fill="#323232"/><path fill-rule="evenodd" clip-rule="evenodd" d="M278 82c-8.837 0-16 7.163-16 16v19c0 8.837 7.163 16 16 16h152c8.837 0 16-7.163 16-16V82H278zm138.282 35.08c1.28 1.568 3.28 2.352 6 2.352 1.312 0 2.416-.192 3.312-.576.928-.416 1.616-.928 2.064-1.536.448-.608.672-1.232.672-1.872 0-.48-.112-.96-.336-1.44a3.198 3.198 0 00-.816-1.2c-1.184.64-2.336.96-3.456.96-1.024 0-1.744-.224-2.16-.672-.416-.48-.624-1.248-.624-2.304V99.848h2.16c1.472 0 2.528-.368 3.168-1.104.64-.768.96-2.016.96-3.744h-6.384v-7.632c-2.144 0-3.744.304-4.8.912-1.056.576-1.584 1.552-1.584 2.928V95h-1.872c-.992 0-1.792.4-2.4 1.2-.608.8-.912 2.016-.912 3.648h5.088v11.184c0 2.464.64 4.48 1.92 6.048zm-117.452 2.352c-1.984 0-3.824-.4-5.52-1.2-1.664-.8-2.992-1.888-3.984-3.264a7.694 7.694 0 01-1.488-4.608v-6.144a8.57 8.57 0 011.488-4.896c1.024-1.504 2.384-2.672 4.08-3.504 1.696-.832 3.52-1.248 5.472-1.248 1.92 0 3.68.4 5.28 1.2 1.632.768 2.912 1.872 3.84 3.312.928 1.408 1.392 3.008 1.392 4.8v2.592c0 .768-.288 1.424-.864 1.968-.576.512-1.312.768-2.208.768h-12.096v.672c0 1.28.384 2.336 1.152 3.168.8.8 1.968 1.2 3.504 1.2 1.504 0 2.608-.32 3.312-.96.704-.672 1.056-1.504 1.056-2.496.64-.064 1.12-.096 1.44-.096 1.312 0 2.32.272 3.024.816.704.544 1.056 1.344 1.056 2.4 0 .864-.432 1.728-1.296 2.592-.864.864-2.064 1.568-3.6 2.112-1.504.544-3.184.816-5.04.816zm-19.073 0c-1.088 0-2.016-.352-2.784-1.056-.768-.736-1.152-1.664-1.152-2.784 0-1.12.384-2.048 1.152-2.784.768-.736 1.696-1.104 2.784-1.104 1.088 0 2.016.368 2.784 1.104.8.736 1.2 1.664 1.2 2.784 0 1.12-.4 2.048-1.2 2.784-.768.704-1.696 1.056-2.784 1.056zm32.525-.336a6.787 6.787 0 002.064.336 5.02 5.02 0 001.968-.384c.608-.224 1.056-.544 1.344-.96l5.088-7.632 5.136 7.632c.288.384.768.704 1.44.96a6.144 6.144 0 002.112.384c.64 0 1.28-.112 1.92-.336.64-.192 1.168-.512 1.584-.96l-8.4-11.472 7.68-11.136c-.256-.288-.72-.512-1.392-.672a6.351 6.351 0 00-1.824-.288c-1.984 0-3.312.512-3.984 1.536l-5.184 8.016-.384-.288 1.008-1.392-3.936-6.336c-.64-1.024-1.888-1.536-3.744-1.536-.576 0-1.232.096-1.968.288-.736.16-1.232.384-1.488.672l7.632 11.136-8.352 11.472c.416.448.976.768 1.68.96zm25.764-20.16c0-1.216.512-2.24 1.536-3.072 1.024-.864 2.528-1.296 4.512-1.296v2.592c-.384.48-.688.912-.912 1.296l.24.192c.992-1.376 2.096-2.4 3.312-3.072 1.248-.672 2.8-1.008 4.656-1.008 1.728 0 3.264.368 4.608 1.104 1.376.736 2.432 1.776 3.168 3.12.768 1.312 1.152 2.816 1.152 4.512v7.392c0 1.728-.432 3.264-1.296 4.608-.832 1.312-2 2.336-3.504 3.072-1.472.704-3.136 1.056-4.992 1.056-1.088 0-2.272-.224-3.552-.672-1.248-.448-2.288-1.072-3.12-1.872l-.192.24c.16.256.512.576 1.056.96v6.624c0 2.88-2.224 4.32-6.672 4.32V98.936zm31.81 19.296c1.696.8 3.536 1.2 5.52 1.2 1.856 0 3.536-.272 5.04-.816 1.536-.544 2.736-1.248 3.6-2.112.864-.864 1.296-1.728 1.296-2.592 0-1.056-.352-1.856-1.056-2.4-.704-.544-1.712-.816-3.024-.816-.32 0-.8.032-1.44.096 0 .992-.352 1.824-1.056 2.496-.704.64-1.808.96-3.312.96-1.536 0-2.704-.4-3.504-1.2-.768-.832-1.152-1.888-1.152-3.168v-.672h12.096c.896 0 1.632-.256 2.208-.768.576-.544.864-1.2.864-1.968v-2.592c0-1.792-.464-3.392-1.392-4.8-.928-1.44-2.208-2.544-3.84-3.312-1.6-.8-3.36-1.2-5.28-1.2-1.952 0-3.776.416-5.472 1.248-1.696.832-3.056 2-4.08 3.504a8.57 8.57 0 00-1.488 4.896v6.144c0 1.696.496 3.232 1.488 4.608.992 1.376 2.32 2.464 3.984 3.264zm33.417-18c-1.92 0-3.472.496-4.656 1.488-1.184.992-1.776 2.24-1.776 3.744v10.128c0 1.376-.544 2.368-1.632 2.976-1.056.576-2.704.864-4.944.864V99.56c0-1.6.528-2.832 1.584-3.696 1.056-.864 2.624-1.296 4.704-1.296V97.4a8.229 8.229 0 00-1.2 1.632l.336.192c2.016-3.104 4.528-4.656 7.536-4.656 1.44 0 2.528.384 3.264 1.152.736.768 1.104 1.744 1.104 2.928 0 .896-.24 1.68-.72 2.352-.896-.512-2.096-.768-3.6-.768z" fill="#323232"/><path d="M279.616 119.432c-1.088 0-2.016-.352-2.784-1.056-.768-.736-1.152-1.664-1.152-2.784 0-1.12.384-2.048 1.152-2.784.768-.736 1.696-1.104 2.784-1.104 1.088 0 2.016.368 2.784 1.104.8.736 1.2 1.664 1.2 2.784 0 1.12-.4 2.048-1.2 2.784-.768.704-1.696 1.056-2.784 1.056z" fill="#FFD53F"/></svg>