<svg xmlns="http://www.w3.org/2000/svg" width="64" height="64"><radialGradient id="c0yjGprCnv9Gl20e9Vf6Ca" cx="32.5" cy="31.5" r="30.516" gradientUnits="userSpaceOnUse" spreadMethod="reflect"><stop offset="0" stop-color="#afeeff"/><stop offset=".193" stop-color="#bbf1ff"/><stop offset=".703" stop-color="#d7f8ff"/><stop offset="1" stop-color="#e1faff"/></radialGradient><path fill="url(#c0yjGprCnv9Gl20e9Vf6Ca)" d="M59 20h1.5a3.51 3.51 0 003.422-4.243C63.58 14.122 62.056 13 60.385 13H53a2 2 0 110-4h3.385c1.67 0 3.195-1.122 3.537-2.757A3.51 3.51 0 0056.5 2h-48C6.575 2 5 3.575 5 5.5S6.575 9 8.5 9H10a2 2 0 110 4H4.615c-1.67 0-3.195 1.122-3.537 2.757A3.51 3.51 0 004.5 20H18v12H4.615c-1.67 0-3.195 1.122-3.537 2.757A3.51 3.51 0 004.5 39H5a2 2 0 110 4h-.5a3.51 3.51 0 00-3.422 4.243C1.42 48.878 2.945 50 4.615 50H10a2 2 0 110 4H8.615c-1.67 0-3.195 1.122-3.537 2.757A3.51 3.51 0 008.5 61h47c1.925 0 3.5-1.575 3.5-3.5S57.425 54 55.5 54H55a2 2 0 110-4h4.385c1.67 0 3.195-1.122 3.537-2.757A3.51 3.51 0 0059.5 43H47V31h12.385c1.67 0 3.195-1.122 3.537-2.757A3.51 3.51 0 0059.5 24H59a2 2 0 110-4z"/><linearGradient id="c0yjGprCnv9Gl20e9Vf6Cb" x1="32" x2="32" y1="6" y2="56" gradientUnits="userSpaceOnUse" spreadMethod="reflect"><stop offset="0" stop-color="#42d778"/><stop offset=".996" stop-color="#34b171"/><stop offset="1" stop-color="#34b171"/></linearGradient><path fill="url(#c0yjGprCnv9Gl20e9Vf6Cb)" d="M57 31c0 13.805-11.195 25-25 25S7 44.805 7 31 18.195 6 32 6s25 11.195 25 25z"/><path fill="#fff" d="M42.695 21.733L27.5 36.946l-5.235-5.22a2.5 2.5 0 00-3.531 3.541l7.002 6.985a2.5 2.5 0 003.534-.003l16.962-16.982a2.5 2.5 0 00-3.537-3.534z"/></svg>