<svg xmlns="http://www.w3.org/2000/svg" width="64" height="64"><linearGradient id="npWyVMH_SNRmaD~1Sft4Ca" x1="32" x2="32" y1="7" y2="55.84" gradientUnits="userSpaceOnUse" spreadMethod="reflect"><stop offset="0" stop-color="#1a6dff"/><stop offset="1" stop-color="#c822ff"/></linearGradient><path fill="url(#npWyVMH_SNRmaD~1Sft4Ca)" d="M54.996 37.446a10.996 10.996 0 00-3.351-2.414A23.22 23.22 0 0052 31C52 18.317 41.683 8 29 8S6 18.317 6 31s10.317 23 23 23c3.32 0 6.504-.692 9.485-2.047A10.98 10.98 0 0047 56c6.065 0 11-4.935 11-11 0-2.82-1.066-5.503-3.004-7.554zM29 52C17.421 52 8 42.579 8 31s9.421-21 21-21 21 9.421 21 21c0 1.126-.095 2.247-.272 3.352A11.04 11.04 0 0047 34c-6.065 0-11 4.935-11 11 0 1.91.491 3.706 1.35 5.273A20.776 20.776 0 0129 52zm18 2c-4.963 0-9-4.037-9-9s4.037-9 9-9c2.5 0 4.824 1.001 6.543 2.819A8.972 8.972 0 0156 45c0 4.963-4.037 9-9 9z"/><linearGradient id="npWyVMH_SNRmaD~1Sft4Cb" x1="48.5" x2="48.5" y1="7" y2="55.84" gradientUnits="userSpaceOnUse" spreadMethod="reflect"><stop offset="0" stop-color="#1a6dff"/><stop offset="1" stop-color="#c822ff"/></linearGradient><path fill="url(#npWyVMH_SNRmaD~1Sft4Cb)" d="M52.793 41.793L47 47.586l-2.793-2.793-1.414 1.414L47 50.414l7.207-7.207z"/><linearGradient id="npWyVMH_SNRmaD~1Sft4Cc" x1="20.041" x2="20.041" y1="7" y2="55.84" gradientUnits="userSpaceOnUse" spreadMethod="reflect"><stop offset="0" stop-color="#1a6dff"/><stop offset="1" stop-color="#c822ff"/></linearGradient><path fill="url(#npWyVMH_SNRmaD~1Sft4Cc)" d="M11.082 24.667l1.885.666c1.695-4.796 5.57-8.671 10.367-10.366A16.956 16.956 0 0129 14v-2c-2.171 0-4.302.364-6.332 1.082-5.361 1.894-9.692 6.225-11.586 11.585z"/><linearGradient id="npWyVMH_SNRmaD~1Sft4Cd" x1="20" x2="20" y1="24.25" y2="34.27" gradientUnits="userSpaceOnUse" spreadMethod="reflect"><stop offset="0" stop-color="#6dc7ff"/><stop offset="1" stop-color="#e6abff"/></linearGradient><path fill="url(#npWyVMH_SNRmaD~1Sft4Cd)" d="M20 25a4 4 0 100 8 4 4 0 100-8z"/><linearGradient id="npWyVMH_SNRmaD~1Sft4Ce" x1="38" x2="38" y1="24.25" y2="34.27" gradientUnits="userSpaceOnUse" spreadMethod="reflect"><stop offset="0" stop-color="#6dc7ff"/><stop offset="1" stop-color="#e6abff"/></linearGradient><path fill="url(#npWyVMH_SNRmaD~1Sft4Ce)" d="M38 25a4 4 0 100 8 4 4 0 100-8z"/><linearGradient id="npWyVMH_SNRmaD~1Sft4Cf" x1="29" x2="29" y1="34.875" y2="45.128" gradientUnits="userSpaceOnUse" spreadMethod="reflect"><stop offset="0" stop-color="#6dc7ff"/><stop offset="1" stop-color="#e6abff"/></linearGradient><path fill="url(#npWyVMH_SNRmaD~1Sft4Cf)" d="M34 36H24a1 1 0 00-1 1v1a6 6 0 1012 0v-1a1 1 0 00-1-1z"/></svg>